<?xml version="1.0" encoding="UTF-8" standalone="no"?>
<!DOCTYPE svg PUBLIC "-//W3C//DTD SVG 1.1//EN"
 "http://www.w3.org/Graphics/SVG/1.1/DTD/svg11.dtd">
<!-- Generated by graphviz version 5.0.0 (20220707.1540)
 -->
<!-- Title: dependencies Pages: 1 -->
<svg width="164pt" height="247pt"
 viewBox="0.00 0.00 164.00 246.80" xmlns="http://www.w3.org/2000/svg" xmlns:xlink="http://www.w3.org/1999/xlink">
<g id="graph0" class="graph" transform="scale(1 1) rotate(0) translate(4 242.8)">
<title>dependencies</title>
<polygon fill="white" stroke="transparent" points="-4,4 -4,-242.8 160,-242.8 160,4 -4,4"/>
<text text-anchor="middle" x="78" y="-8.2" font-family="sans-serif" font-size="14.00">dependencies</text>
<g id="clust1" class="cluster">
<title>cluster_PipeSalesModule</title>
<polygon fill="none" stroke="black" stroke-dasharray="1,5" points="8,-32.8 8,-230.8 148,-230.8 148,-32.8 8,-32.8"/>
</g>
<g id="clust5" class="cluster">
<title>cluster_PipeSalesModule_exports</title>
<polygon fill="none" stroke="black" points="16,-170.8 16,-222.8 140,-222.8 140,-170.8 16,-170.8"/>
</g>
<g id="clust2" class="cluster">
<title>cluster_PipeSalesModule_declarations</title>
<polygon fill="none" stroke="black" points="18,-40.8 18,-92.8 138,-92.8 138,-40.8 18,-40.8"/>
</g>
<!-- ListVariantPipe -->
<g id="node1" class="node">
<title>ListVariantPipe</title>
<polygon fill="#ffffb3" stroke="black" points="130.15,-84.8 25.85,-84.8 25.85,-48.8 130.15,-48.8 130.15,-84.8"/>
<text text-anchor="middle" x="78" y="-62.6" font-family="Times,serif" font-size="14.00">ListVariantPipe</text>
</g>
<!-- PipeSalesModule -->
<g id="node2" class="node">
<title>PipeSalesModule</title>
<polygon fill="#8dd3c7" stroke="black" points="134.99,-149.8 131.99,-153.8 110.99,-153.8 107.99,-149.8 21.01,-149.8 21.01,-113.8 134.99,-113.8 134.99,-149.8"/>
<text text-anchor="middle" x="78" y="-127.6" font-family="Times,serif" font-size="14.00">PipeSalesModule</text>
</g>
<!-- ListVariantPipe&#45;&gt;PipeSalesModule -->
<g id="edge1" class="edge">
<title>ListVariantPipe&#45;&gt;PipeSalesModule</title>
<path fill="none" stroke="black" d="M78,-84.91C78,-84.91 78,-103.79 78,-103.79"/>
<polygon fill="black" stroke="black" points="74.5,-103.79 78,-113.79 81.5,-103.79 74.5,-103.79"/>
</g>
<!-- ListVariantPipe  -->
<g id="node3" class="node">
<title>ListVariantPipe </title>
<polygon fill="#fb8072" stroke="black" points="132.15,-214.8 23.85,-214.8 23.85,-178.8 132.15,-178.8 132.15,-214.8"/>
<text text-anchor="middle" x="78" y="-192.6" font-family="Times,serif" font-size="14.00">ListVariantPipe </text>
</g>
<!-- PipeSalesModule&#45;&gt;ListVariantPipe  -->
<g id="edge2" class="edge">
<title>PipeSalesModule&#45;&gt;ListVariantPipe </title>
<path fill="none" stroke="black" stroke-dasharray="5,2" d="M78,-149.91C78,-149.91 78,-168.79 78,-168.79"/>
<polygon fill="black" stroke="black" points="74.5,-168.79 78,-178.79 81.5,-168.79 74.5,-168.79"/>
</g>
</g>
</svg>
