<?xml version="1.0" encoding="UTF-8" standalone="no"?>
<!DOCTYPE svg PUBLIC "-//W3C//DTD SVG 1.1//EN"
 "http://www.w3.org/Graphics/SVG/1.1/DTD/svg11.dtd">
<!-- Generated by graphviz version 5.0.0 (20220707.1540)
 -->
<!-- Title: dependencies Pages: 1 -->
<svg width="808pt" height="247pt"
 viewBox="0.00 0.00 808.00 246.80" xmlns="http://www.w3.org/2000/svg" xmlns:xlink="http://www.w3.org/1999/xlink">
<g id="graph0" class="graph" transform="scale(1 1) rotate(0) translate(4 242.8)">
<title>dependencies</title>
<polygon fill="white" stroke="transparent" points="-4,4 -4,-242.8 804,-242.8 804,4 -4,4"/>
<text text-anchor="middle" x="400" y="-8.2" font-family="sans-serif" font-size="14.00">dependencies</text>
<g id="clust1" class="cluster">
<title>cluster_PagesModule</title>
<polygon fill="none" stroke="black" stroke-dasharray="1,5" points="8,-32.8 8,-230.8 792,-230.8 792,-32.8 8,-32.8"/>
</g>
<g id="clust4" class="cluster">
<title>cluster_PagesModule_imports</title>
<polygon fill="none" stroke="black" points="154,-40.8 154,-92.8 784,-92.8 784,-40.8 154,-40.8"/>
</g>
<g id="clust5" class="cluster">
<title>cluster_PagesModule_exports</title>
<polygon fill="none" stroke="black" points="319,-170.8 319,-222.8 453,-222.8 453,-170.8 319,-170.8"/>
</g>
<g id="clust2" class="cluster">
<title>cluster_PagesModule_declarations</title>
<polygon fill="none" stroke="black" points="16,-40.8 16,-92.8 146,-92.8 146,-40.8 16,-40.8"/>
</g>
<!-- PagesComponent -->
<g id="node1" class="node">
<title>PagesComponent</title>
<polygon fill="#ffffb3" stroke="black" points="137.99,-84.8 24.01,-84.8 24.01,-48.8 137.99,-48.8 137.99,-84.8"/>
<text text-anchor="middle" x="81" y="-62.6" font-family="Times,serif" font-size="14.00">PagesComponent</text>
</g>
<!-- PagesModule -->
<g id="node2" class="node">
<title>PagesModule</title>
<polygon fill="#8dd3c7" stroke="black" points="432.21,-149.8 429.21,-153.8 408.21,-153.8 405.21,-149.8 339.79,-149.8 339.79,-113.8 432.21,-113.8 432.21,-149.8"/>
<text text-anchor="middle" x="386" y="-127.6" font-family="Times,serif" font-size="14.00">PagesModule</text>
</g>
<!-- PagesComponent&#45;&gt;PagesModule -->
<g id="edge1" class="edge">
<title>PagesComponent&#45;&gt;PagesModule</title>
<path fill="none" stroke="black" d="M81,-85.08C81,-106.12 81,-137.8 81,-137.8 81,-137.8 329.68,-137.8 329.68,-137.8"/>
<polygon fill="black" stroke="black" points="329.68,-141.3 339.68,-137.8 329.68,-134.3 329.68,-141.3"/>
</g>
<!-- PagesComponent  -->
<g id="node8" class="node">
<title>PagesComponent </title>
<polygon fill="#fb8072" stroke="black" points="444.99,-214.8 327.01,-214.8 327.01,-178.8 444.99,-178.8 444.99,-214.8"/>
<text text-anchor="middle" x="386" y="-192.6" font-family="Times,serif" font-size="14.00">PagesComponent </text>
</g>
<!-- PagesModule&#45;&gt;PagesComponent  -->
<g id="edge7" class="edge">
<title>PagesModule&#45;&gt;PagesComponent </title>
<path fill="none" stroke="black" stroke-dasharray="5,2" d="M386,-149.91C386,-149.91 386,-168.79 386,-168.79"/>
<polygon fill="black" stroke="black" points="382.5,-168.79 386,-178.79 389.5,-168.79 382.5,-168.79"/>
</g>
<!-- CustomerModule -->
<g id="node3" class="node">
<title>CustomerModule</title>
<polygon fill="#8dd3c7" stroke="black" points="775.99,-84.8 772.99,-88.8 751.99,-88.8 748.99,-84.8 662.01,-84.8 662.01,-48.8 775.99,-48.8 775.99,-84.8"/>
<text text-anchor="middle" x="719" y="-62.6" font-family="Times,serif" font-size="14.00">CustomerModule</text>
</g>
<!-- CustomerModule&#45;&gt;PagesModule -->
<g id="edge2" class="edge">
<title>CustomerModule&#45;&gt;PagesModule</title>
<path fill="none" stroke="black" d="M719,-85.08C719,-106.12 719,-137.8 719,-137.8 719,-137.8 442.3,-137.8 442.3,-137.8"/>
<polygon fill="black" stroke="black" points="442.3,-134.3 432.3,-137.8 442.3,-141.3 442.3,-134.3"/>
</g>
<!-- DashboardModule -->
<g id="node4" class="node">
<title>DashboardModule</title>
<polygon fill="#8dd3c7" stroke="black" points="644.2,-84.8 641.2,-88.8 620.2,-88.8 617.2,-84.8 523.8,-84.8 523.8,-48.8 644.2,-48.8 644.2,-84.8"/>
<text text-anchor="middle" x="584" y="-62.6" font-family="Times,serif" font-size="14.00">DashboardModule</text>
</g>
<!-- DashboardModule&#45;&gt;PagesModule -->
<g id="edge3" class="edge">
<title>DashboardModule&#45;&gt;PagesModule</title>
<path fill="none" stroke="black" d="M584,-84.82C584,-102.17 584,-125.8 584,-125.8 584,-125.8 442.17,-125.8 442.17,-125.8"/>
<polygon fill="black" stroke="black" points="442.17,-122.3 432.17,-125.8 442.17,-129.3 442.17,-122.3"/>
</g>
<!-- DirectivesModule -->
<g id="node5" class="node">
<title>DirectivesModule</title>
<polygon fill="#8dd3c7" stroke="black" points="505.58,-84.8 502.58,-88.8 481.58,-88.8 478.58,-84.8 388.42,-84.8 388.42,-48.8 505.58,-48.8 505.58,-84.8"/>
<text text-anchor="middle" x="447" y="-62.6" font-family="Times,serif" font-size="14.00">DirectivesModule</text>
</g>
<!-- DirectivesModule&#45;&gt;PagesModule -->
<g id="edge4" class="edge">
<title>DirectivesModule&#45;&gt;PagesModule</title>
<path fill="none" stroke="black" d="M410.28,-84.91C410.28,-84.91 410.28,-103.79 410.28,-103.79"/>
<polygon fill="black" stroke="black" points="406.78,-103.79 410.28,-113.79 413.78,-103.79 406.78,-103.79"/>
</g>
<!-- SalesModule -->
<g id="node6" class="node">
<title>SalesModule</title>
<polygon fill="#8dd3c7" stroke="black" points="370.6,-84.8 367.6,-88.8 346.6,-88.8 343.6,-84.8 281.4,-84.8 281.4,-48.8 370.6,-48.8 370.6,-84.8"/>
<text text-anchor="middle" x="326" y="-62.6" font-family="Times,serif" font-size="14.00">SalesModule</text>
</g>
<!-- SalesModule&#45;&gt;PagesModule -->
<g id="edge5" class="edge">
<title>SalesModule&#45;&gt;PagesModule</title>
<path fill="none" stroke="black" d="M355.22,-84.91C355.22,-84.91 355.22,-103.79 355.22,-103.79"/>
<polygon fill="black" stroke="black" points="351.72,-103.79 355.22,-113.79 358.72,-103.79 351.72,-103.79"/>
</g>
<!-- VendorModule -->
<g id="node7" class="node">
<title>VendorModule</title>
<polygon fill="#8dd3c7" stroke="black" points="263.54,-84.8 260.54,-88.8 239.54,-88.8 236.54,-84.8 162.46,-84.8 162.46,-48.8 263.54,-48.8 263.54,-84.8"/>
<text text-anchor="middle" x="213" y="-62.6" font-family="Times,serif" font-size="14.00">VendorModule</text>
</g>
<!-- VendorModule&#45;&gt;PagesModule -->
<g id="edge6" class="edge">
<title>VendorModule&#45;&gt;PagesModule</title>
<path fill="none" stroke="black" d="M213,-84.82C213,-102.17 213,-125.8 213,-125.8 213,-125.8 329.64,-125.8 329.64,-125.8"/>
<polygon fill="black" stroke="black" points="329.64,-129.3 339.64,-125.8 329.64,-122.3 329.64,-129.3"/>
</g>
</g>
</svg>
