<?xml version="1.0" encoding="UTF-8" standalone="no"?>
<!DOCTYPE svg PUBLIC "-//W3C//DTD SVG 1.1//EN"
 "http://www.w3.org/Graphics/SVG/1.1/DTD/svg11.dtd">
<!-- Generated by graphviz version 5.0.0 (20220707.1540)
 -->
<!-- Title: dependencies Pages: 1 -->
<svg width="816pt" height="247pt"
 viewBox="0.00 0.00 816.00 246.80" xmlns="http://www.w3.org/2000/svg" xmlns:xlink="http://www.w3.org/1999/xlink">
<g id="graph0" class="graph" transform="scale(1 1) rotate(0) translate(4 242.8)">
<title>dependencies</title>
<polygon fill="white" stroke="transparent" points="-4,4 -4,-242.8 812,-242.8 812,4 -4,4"/>
<text text-anchor="middle" x="404" y="-8.2" font-family="sans-serif" font-size="14.00">dependencies</text>
<g id="clust1" class="cluster">
<title>cluster_TizoTableModule</title>
<polygon fill="none" stroke="black" stroke-dasharray="1,5" points="8,-32.8 8,-230.8 800,-230.8 800,-32.8 8,-32.8"/>
</g>
<g id="clust2" class="cluster">
<title>cluster_TizoTableModule_declarations</title>
<polygon fill="none" stroke="black" points="16,-40.8 16,-92.8 792,-92.8 792,-40.8 16,-40.8"/>
</g>
<g id="clust9" class="cluster">
<title>cluster_TizoTableModule_exports</title>
<polygon fill="none" stroke="black" points="68,-170.8 68,-222.8 740,-222.8 740,-170.8 68,-170.8"/>
</g>
<!-- DynamicTableComponent -->
<g id="node1" class="node">
<title>DynamicTableComponent</title>
<polygon fill="#ffffb3" stroke="black" points="784.02,-84.8 619.98,-84.8 619.98,-48.8 784.02,-48.8 784.02,-84.8"/>
<text text-anchor="middle" x="702" y="-62.6" font-family="Times,serif" font-size="14.00">DynamicTableComponent</text>
</g>
<!-- TizoTableModule -->
<g id="node6" class="node">
<title>TizoTableModule</title>
<polygon fill="#8dd3c7" stroke="black" points="482.58,-149.8 479.58,-153.8 458.58,-153.8 455.58,-149.8 365.42,-149.8 365.42,-113.8 482.58,-113.8 482.58,-149.8"/>
<text text-anchor="middle" x="424" y="-127.6" font-family="Times,serif" font-size="14.00">TizoTableModule</text>
</g>
<!-- DynamicTableComponent&#45;&gt;TizoTableModule -->
<g id="edge1" class="edge">
<title>DynamicTableComponent&#45;&gt;TizoTableModule</title>
<path fill="none" stroke="black" d="M675.88,-84.82C675.88,-102.17 675.88,-125.8 675.88,-125.8 675.88,-125.8 492.74,-125.8 492.74,-125.8"/>
<polygon fill="black" stroke="black" points="492.74,-122.3 482.74,-125.8 492.74,-129.3 492.74,-122.3"/>
</g>
<!-- KeysHeaderPipe -->
<g id="node2" class="node">
<title>KeysHeaderPipe</title>
<polygon fill="#ffffb3" stroke="black" points="602.08,-84.8 491.92,-84.8 491.92,-48.8 602.08,-48.8 602.08,-84.8"/>
<text text-anchor="middle" x="547" y="-62.6" font-family="Times,serif" font-size="14.00">KeysHeaderPipe</text>
</g>
<!-- KeysHeaderPipe&#45;&gt;TizoTableModule -->
<g id="edge2" class="edge">
<title>KeysHeaderPipe&#45;&gt;TizoTableModule</title>
<path fill="none" stroke="black" d="M491.68,-66.8C483.88,-66.8 478.46,-66.8 478.46,-66.8 478.46,-66.8 478.46,-103.69 478.46,-103.69"/>
<polygon fill="black" stroke="black" points="474.96,-103.69 478.46,-113.69 481.96,-103.69 474.96,-103.69"/>
</g>
<!-- PaginationPipe -->
<g id="node3" class="node">
<title>PaginationPipe</title>
<polygon fill="#ffffb3" stroke="black" points="474.27,-84.8 373.73,-84.8 373.73,-48.8 474.27,-48.8 474.27,-84.8"/>
<text text-anchor="middle" x="424" y="-62.6" font-family="Times,serif" font-size="14.00">PaginationPipe</text>
</g>
<!-- PaginationPipe&#45;&gt;TizoTableModule -->
<g id="edge3" class="edge">
<title>PaginationPipe&#45;&gt;TizoTableModule</title>
<path fill="none" stroke="black" d="M424,-84.91C424,-84.91 424,-103.79 424,-103.79"/>
<polygon fill="black" stroke="black" points="420.5,-103.79 424,-113.79 427.5,-103.79 420.5,-103.79"/>
</g>
<!-- TizoPaginationComponent -->
<g id="node4" class="node">
<title>TizoPaginationComponent</title>
<polygon fill="#ffffb3" stroke="black" points="355.37,-84.8 188.63,-84.8 188.63,-48.8 355.37,-48.8 355.37,-84.8"/>
<text text-anchor="middle" x="272" y="-62.6" font-family="Times,serif" font-size="14.00">TizoPaginationComponent</text>
</g>
<!-- TizoPaginationComponent&#45;&gt;TizoTableModule -->
<g id="edge4" class="edge">
<title>TizoPaginationComponent&#45;&gt;TizoTableModule</title>
<path fill="none" stroke="black" d="M355.56,-66.8C364,-66.8 369.54,-66.8 369.54,-66.8 369.54,-66.8 369.54,-103.69 369.54,-103.69"/>
<polygon fill="black" stroke="black" points="366.04,-103.69 369.54,-113.69 373.04,-103.69 366.04,-103.69"/>
</g>
<!-- TizoTemplateDirective -->
<g id="node5" class="node">
<title>TizoTemplateDirective</title>
<polygon fill="#ffffb3" stroke="black" points="170.1,-84.8 23.9,-84.8 23.9,-48.8 170.1,-48.8 170.1,-84.8"/>
<text text-anchor="middle" x="97" y="-62.6" font-family="Times,serif" font-size="14.00">TizoTemplateDirective</text>
</g>
<!-- TizoTemplateDirective&#45;&gt;TizoTableModule -->
<g id="edge5" class="edge">
<title>TizoTemplateDirective&#45;&gt;TizoTableModule</title>
<path fill="none" stroke="black" d="M123.12,-84.82C123.12,-102.17 123.12,-125.8 123.12,-125.8 123.12,-125.8 355.27,-125.8 355.27,-125.8"/>
<polygon fill="black" stroke="black" points="355.27,-129.3 365.27,-125.8 355.27,-122.3 355.27,-129.3"/>
</g>
<!-- DynamicTableComponent  -->
<g id="node7" class="node">
<title>DynamicTableComponent </title>
<polygon fill="#fb8072" stroke="black" points="732.02,-214.8 563.98,-214.8 563.98,-178.8 732.02,-178.8 732.02,-214.8"/>
<text text-anchor="middle" x="648" y="-192.6" font-family="Times,serif" font-size="14.00">DynamicTableComponent </text>
</g>
<!-- TizoTableModule&#45;&gt;DynamicTableComponent  -->
<g id="edge6" class="edge">
<title>TizoTableModule&#45;&gt;DynamicTableComponent </title>
<path fill="none" stroke="black" stroke-dasharray="5,2" d="M482.76,-137.8C528.06,-137.8 583.01,-137.8 583.01,-137.8 583.01,-137.8 583.01,-168.78 583.01,-168.78"/>
<polygon fill="black" stroke="black" points="579.51,-168.78 583.01,-178.78 586.51,-168.78 579.51,-168.78"/>
</g>
<!-- KeysHeaderPipe  -->
<g id="node8" class="node">
<title>KeysHeaderPipe </title>
<polygon fill="#fb8072" stroke="black" points="545.58,-214.8 432.42,-214.8 432.42,-178.8 545.58,-178.8 545.58,-214.8"/>
<text text-anchor="middle" x="489" y="-192.6" font-family="Times,serif" font-size="14.00">KeysHeaderPipe </text>
</g>
<!-- TizoTableModule&#45;&gt;KeysHeaderPipe  -->
<g id="edge7" class="edge">
<title>TizoTableModule&#45;&gt;KeysHeaderPipe </title>
<path fill="none" stroke="black" stroke-dasharray="5,2" d="M457.38,-149.91C457.38,-149.91 457.38,-168.79 457.38,-168.79"/>
<polygon fill="black" stroke="black" points="453.88,-168.79 457.38,-178.79 460.88,-168.79 453.88,-168.79"/>
</g>
<!-- TizoPaginationComponent  -->
<g id="node9" class="node">
<title>TizoPaginationComponent </title>
<polygon fill="#fb8072" stroke="black" points="414.37,-214.8 243.63,-214.8 243.63,-178.8 414.37,-178.8 414.37,-214.8"/>
<text text-anchor="middle" x="329" y="-192.6" font-family="Times,serif" font-size="14.00">TizoPaginationComponent </text>
</g>
<!-- TizoTableModule&#45;&gt;TizoPaginationComponent  -->
<g id="edge8" class="edge">
<title>TizoTableModule&#45;&gt;TizoPaginationComponent </title>
<path fill="none" stroke="black" stroke-dasharray="5,2" d="M389.82,-149.91C389.82,-149.91 389.82,-168.79 389.82,-168.79"/>
<polygon fill="black" stroke="black" points="386.32,-168.79 389.82,-178.79 393.32,-168.79 386.32,-168.79"/>
</g>
<!-- TizoTemplateDirective  -->
<g id="node10" class="node">
<title>TizoTemplateDirective </title>
<polygon fill="#fb8072" stroke="black" points="226.1,-214.8 75.9,-214.8 75.9,-178.8 226.1,-178.8 226.1,-214.8"/>
<text text-anchor="middle" x="151" y="-192.6" font-family="Times,serif" font-size="14.00">TizoTemplateDirective </text>
</g>
<!-- TizoTableModule&#45;&gt;TizoTemplateDirective  -->
<g id="edge9" class="edge">
<title>TizoTableModule&#45;&gt;TizoTemplateDirective </title>
<path fill="none" stroke="black" stroke-dasharray="5,2" d="M365.36,-137.8C301.19,-137.8 207.31,-137.8 207.31,-137.8 207.31,-137.8 207.31,-168.78 207.31,-168.78"/>
<polygon fill="black" stroke="black" points="203.81,-168.78 207.31,-178.78 210.81,-168.78 203.81,-168.78"/>
</g>
</g>
</svg>
