<?xml version="1.0" encoding="UTF-8" standalone="no"?>
<!DOCTYPE svg PUBLIC "-//W3C//DTD SVG 1.1//EN"
 "http://www.w3.org/Graphics/SVG/1.1/DTD/svg11.dtd">
<!-- Generated by graphviz version 5.0.0 (20220707.1540)
 -->
<!-- Title: dependencies Pages: 1 -->
<svg width="511pt" height="247pt"
 viewBox="0.00 0.00 511.00 246.80" xmlns="http://www.w3.org/2000/svg" xmlns:xlink="http://www.w3.org/1999/xlink">
<g id="graph0" class="graph" transform="scale(1 1) rotate(0) translate(4 242.8)">
<title>dependencies</title>
<polygon fill="white" stroke="transparent" points="-4,4 -4,-242.8 507,-242.8 507,4 -4,4"/>
<text text-anchor="middle" x="251.5" y="-8.2" font-family="sans-serif" font-size="14.00">dependencies</text>
<g id="clust1" class="cluster">
<title>cluster_DirectivesModule</title>
<polygon fill="none" stroke="black" stroke-dasharray="1,5" points="8,-32.8 8,-230.8 495,-230.8 495,-32.8 8,-32.8"/>
</g>
<g id="clust2" class="cluster">
<title>cluster_DirectivesModule_declarations</title>
<polygon fill="none" stroke="black" points="16,-40.8 16,-92.8 487,-92.8 487,-40.8 16,-40.8"/>
</g>
<g id="clust7" class="cluster">
<title>cluster_DirectivesModule_exports</title>
<polygon fill="none" stroke="black" points="110,-170.8 110,-222.8 414,-222.8 414,-170.8 110,-170.8"/>
</g>
<!-- AppRoleDirective -->
<g id="node1" class="node">
<title>AppRoleDirective</title>
<polygon fill="#ffffb3" stroke="black" points="479.14,-84.8 360.86,-84.8 360.86,-48.8 479.14,-48.8 479.14,-84.8"/>
<text text-anchor="middle" x="420" y="-62.6" font-family="Times,serif" font-size="14.00">AppRoleDirective</text>
</g>
<!-- DirectivesModule -->
<g id="node4" class="node">
<title>DirectivesModule</title>
<polygon fill="#8dd3c7" stroke="black" points="329.58,-149.8 326.58,-153.8 305.58,-153.8 302.58,-149.8 212.42,-149.8 212.42,-113.8 329.58,-113.8 329.58,-149.8"/>
<text text-anchor="middle" x="271" y="-127.6" font-family="Times,serif" font-size="14.00">DirectivesModule</text>
</g>
<!-- AppRoleDirective&#45;&gt;DirectivesModule -->
<g id="edge1" class="edge">
<title>AppRoleDirective&#45;&gt;DirectivesModule</title>
<path fill="none" stroke="black" d="M383.38,-84.91C383.38,-104.14 383.38,-131.8 383.38,-131.8 383.38,-131.8 339.82,-131.8 339.82,-131.8"/>
<polygon fill="black" stroke="black" points="339.82,-128.3 329.82,-131.8 339.82,-135.3 339.82,-128.3"/>
</g>
<!-- ClickOutSideDirective -->
<g id="node2" class="node">
<title>ClickOutSideDirective</title>
<polygon fill="#ffffb3" stroke="black" points="343.3,-84.8 198.7,-84.8 198.7,-48.8 343.3,-48.8 343.3,-84.8"/>
<text text-anchor="middle" x="271" y="-62.6" font-family="Times,serif" font-size="14.00">ClickOutSideDirective</text>
</g>
<!-- ClickOutSideDirective&#45;&gt;DirectivesModule -->
<g id="edge2" class="edge">
<title>ClickOutSideDirective&#45;&gt;DirectivesModule</title>
<path fill="none" stroke="black" d="M271,-84.91C271,-84.91 271,-103.79 271,-103.79"/>
<polygon fill="black" stroke="black" points="267.5,-103.79 271,-113.79 274.5,-103.79 267.5,-103.79"/>
</g>
<!-- ColumnCustomDirective -->
<g id="node3" class="node">
<title>ColumnCustomDirective</title>
<polygon fill="#ffffb3" stroke="black" points="180.27,-84.8 23.73,-84.8 23.73,-48.8 180.27,-48.8 180.27,-84.8"/>
<text text-anchor="middle" x="102" y="-62.6" font-family="Times,serif" font-size="14.00">ColumnCustomDirective</text>
</g>
<!-- ColumnCustomDirective&#45;&gt;DirectivesModule -->
<g id="edge3" class="edge">
<title>ColumnCustomDirective&#45;&gt;DirectivesModule</title>
<path fill="none" stroke="black" d="M149.24,-84.91C149.24,-104.14 149.24,-131.8 149.24,-131.8 149.24,-131.8 202.26,-131.8 202.26,-131.8"/>
<polygon fill="black" stroke="black" points="202.26,-135.3 212.26,-131.8 202.26,-128.3 202.26,-135.3"/>
</g>
<!-- AppRoleDirective  -->
<g id="node5" class="node">
<title>AppRoleDirective </title>
<polygon fill="#fb8072" stroke="black" points="406.13,-214.8 283.87,-214.8 283.87,-178.8 406.13,-178.8 406.13,-214.8"/>
<text text-anchor="middle" x="345" y="-192.6" font-family="Times,serif" font-size="14.00">AppRoleDirective </text>
</g>
<!-- DirectivesModule&#45;&gt;AppRoleDirective  -->
<g id="edge4" class="edge">
<title>DirectivesModule&#45;&gt;AppRoleDirective </title>
<path fill="none" stroke="black" stroke-dasharray="5,2" d="M306.74,-149.91C306.74,-149.91 306.74,-168.79 306.74,-168.79"/>
<polygon fill="black" stroke="black" points="303.24,-168.79 306.74,-178.79 310.24,-168.79 303.24,-168.79"/>
</g>
<!-- ClickOutSideDirective  -->
<g id="node6" class="node">
<title>ClickOutSideDirective </title>
<polygon fill="#fb8072" stroke="black" points="265.8,-214.8 118.2,-214.8 118.2,-178.8 265.8,-178.8 265.8,-214.8"/>
<text text-anchor="middle" x="192" y="-192.6" font-family="Times,serif" font-size="14.00">ClickOutSideDirective </text>
</g>
<!-- DirectivesModule&#45;&gt;ClickOutSideDirective  -->
<g id="edge5" class="edge">
<title>DirectivesModule&#45;&gt;ClickOutSideDirective </title>
<path fill="none" stroke="black" stroke-dasharray="5,2" d="M239.18,-149.91C239.18,-149.91 239.18,-168.79 239.18,-168.79"/>
<polygon fill="black" stroke="black" points="235.68,-168.79 239.18,-178.79 242.68,-168.79 235.68,-168.79"/>
</g>
</g>
</svg>
