<?xml version="1.0" encoding="UTF-8" standalone="no"?>
<!DOCTYPE svg PUBLIC "-//W3C//DTD SVG 1.1//EN"
 "http://www.w3.org/Graphics/SVG/1.1/DTD/svg11.dtd">
<!-- Generated by graphviz version 5.0.0 (20220707.1540)
 -->
<!-- Title: dependencies Pages: 1 -->
<svg width="1196pt" height="247pt"
 viewBox="0.00 0.00 1196.00 246.80" xmlns="http://www.w3.org/2000/svg" xmlns:xlink="http://www.w3.org/1999/xlink">
<g id="graph0" class="graph" transform="scale(1 1) rotate(0) translate(4 242.8)">
<title>dependencies</title>
<polygon fill="white" stroke="transparent" points="-4,4 -4,-242.8 1192,-242.8 1192,4 -4,4"/>
<text text-anchor="middle" x="594" y="-8.2" font-family="sans-serif" font-size="14.00">dependencies</text>
<g id="clust1" class="cluster">
<title>cluster_AppModule</title>
<polygon fill="none" stroke="black" stroke-dasharray="1,5" points="8,-32.8 8,-230.8 1180,-230.8 1180,-32.8 8,-32.8"/>
</g>
<g id="clust8" class="cluster">
<title>cluster_AppModule_providers</title>
<polygon fill="none" stroke="black" points="642,-40.8 642,-92.8 1172,-92.8 1172,-40.8 642,-40.8"/>
</g>
<g id="clust2" class="cluster">
<title>cluster_AppModule_declarations</title>
<polygon fill="none" stroke="black" points="384,-40.8 384,-92.8 634,-92.8 634,-40.8 384,-40.8"/>
</g>
<g id="clust5" class="cluster">
<title>cluster_AppModule_imports</title>
<polygon fill="none" stroke="black" points="16,-40.8 16,-92.8 376,-92.8 376,-40.8 16,-40.8"/>
</g>
<g id="clust7" class="cluster">
<title>cluster_AppModule_bootstrap</title>
<polygon fill="none" stroke="black" points="448,-170.8 448,-222.8 572,-222.8 572,-170.8 448,-170.8"/>
</g>
<!-- AppComponent -->
<g id="node1" class="node">
<title>AppComponent</title>
<polygon fill="#ffffb3" stroke="black" points="625.94,-84.8 520.06,-84.8 520.06,-48.8 625.94,-48.8 625.94,-84.8"/>
<text text-anchor="middle" x="573" y="-62.6" font-family="Times,serif" font-size="14.00">AppComponent</text>
</g>
<!-- AppModule -->
<g id="node3" class="node">
<title>AppModule</title>
<polygon fill="#8dd3c7" stroke="black" points="551.66,-149.8 548.66,-153.8 527.66,-153.8 524.66,-149.8 468.34,-149.8 468.34,-113.8 551.66,-113.8 551.66,-149.8"/>
<text text-anchor="middle" x="510" y="-127.6" font-family="Times,serif" font-size="14.00">AppModule</text>
</g>
<!-- AppComponent&#45;&gt;AppModule -->
<g id="edge1" class="edge">
<title>AppComponent&#45;&gt;AppModule</title>
<path fill="none" stroke="black" d="M536.06,-84.91C536.06,-84.91 536.06,-103.79 536.06,-103.79"/>
<polygon fill="black" stroke="black" points="532.56,-103.79 536.06,-113.79 539.56,-103.79 532.56,-103.79"/>
</g>
<!-- ErrorComponent -->
<g id="node2" class="node">
<title>ErrorComponent</title>
<polygon fill="#ffffb3" stroke="black" points="502.37,-84.8 391.63,-84.8 391.63,-48.8 502.37,-48.8 502.37,-84.8"/>
<text text-anchor="middle" x="447" y="-62.6" font-family="Times,serif" font-size="14.00">ErrorComponent</text>
</g>
<!-- ErrorComponent&#45;&gt;AppModule -->
<g id="edge2" class="edge">
<title>ErrorComponent&#45;&gt;AppModule</title>
<path fill="none" stroke="black" d="M485.3,-84.91C485.3,-84.91 485.3,-103.79 485.3,-103.79"/>
<polygon fill="black" stroke="black" points="481.8,-103.79 485.3,-113.79 488.8,-103.79 481.8,-103.79"/>
</g>
<!-- AppComponent  -->
<g id="node7" class="node">
<title>AppComponent </title>
<polygon fill="#80b1d3" stroke="black" points="564.44,-214.8 455.56,-214.8 455.56,-178.8 564.44,-178.8 564.44,-214.8"/>
<text text-anchor="middle" x="510" y="-192.6" font-family="Times,serif" font-size="14.00">AppComponent </text>
</g>
<!-- AppModule&#45;&gt;AppComponent  -->
<g id="edge6" class="edge">
<title>AppModule&#45;&gt;AppComponent </title>
<path fill="none" stroke="black" stroke-dasharray="1,5" d="M510,-149.91C510,-149.91 510,-168.79 510,-168.79"/>
<polygon fill="black" stroke="black" points="506.5,-168.79 510,-178.79 513.5,-168.79 506.5,-168.79"/>
</g>
<!-- AppRoutingModule -->
<g id="node4" class="node">
<title>AppRoutingModule</title>
<polygon fill="#8dd3c7" stroke="black" points="368.28,-84.8 365.28,-88.8 344.28,-88.8 341.28,-84.8 239.72,-84.8 239.72,-48.8 368.28,-48.8 368.28,-84.8"/>
<text text-anchor="middle" x="304" y="-62.6" font-family="Times,serif" font-size="14.00">AppRoutingModule</text>
</g>
<!-- AppRoutingModule&#45;&gt;AppModule -->
<g id="edge3" class="edge">
<title>AppRoutingModule&#45;&gt;AppModule</title>
<path fill="none" stroke="black" d="M304,-84.83C304,-101.2 304,-122.8 304,-122.8 304,-122.8 458.31,-122.8 458.31,-122.8"/>
<polygon fill="black" stroke="black" points="458.31,-126.3 468.31,-122.8 458.31,-119.3 458.31,-126.3"/>
</g>
<!-- AuthModule -->
<g id="node5" class="node">
<title>AuthModule</title>
<polygon fill="#8dd3c7" stroke="black" points="221.55,-84.8 218.55,-88.8 197.55,-88.8 194.55,-84.8 134.45,-84.8 134.45,-48.8 221.55,-48.8 221.55,-84.8"/>
<text text-anchor="middle" x="178" y="-62.6" font-family="Times,serif" font-size="14.00">AuthModule</text>
</g>
<!-- AuthModule&#45;&gt;AppModule -->
<g id="edge4" class="edge">
<title>AuthModule&#45;&gt;AppModule</title>
<path fill="none" stroke="black" d="M178,-84.91C178,-104.14 178,-131.8 178,-131.8 178,-131.8 458.29,-131.8 458.29,-131.8"/>
<polygon fill="black" stroke="black" points="458.29,-135.3 468.29,-131.8 458.29,-128.3 458.29,-135.3"/>
</g>
<!-- PagesModule -->
<g id="node6" class="node">
<title>PagesModule</title>
<polygon fill="#8dd3c7" stroke="black" points="116.21,-84.8 113.21,-88.8 92.21,-88.8 89.21,-84.8 23.79,-84.8 23.79,-48.8 116.21,-48.8 116.21,-84.8"/>
<text text-anchor="middle" x="70" y="-62.6" font-family="Times,serif" font-size="14.00">PagesModule</text>
</g>
<!-- PagesModule&#45;&gt;AppModule -->
<g id="edge5" class="edge">
<title>PagesModule&#45;&gt;AppModule</title>
<path fill="none" stroke="black" d="M70,-85.09C70,-107.01 70,-140.8 70,-140.8 70,-140.8 458.21,-140.8 458.21,-140.8"/>
<polygon fill="black" stroke="black" points="458.21,-144.3 468.21,-140.8 458.21,-137.3 458.21,-144.3"/>
</g>
<!-- AuthInterceptor -->
<g id="node8" class="node">
<title>AuthInterceptor</title>
<ellipse fill="#fdb462" stroke="black" cx="1091" cy="-66.8" rx="72.92" ry="18"/>
<text text-anchor="middle" x="1091" y="-62.6" font-family="Times,serif" font-size="14.00">AuthInterceptor</text>
</g>
<!-- AuthInterceptor&#45;&gt;AppModule -->
<g id="edge7" class="edge">
<title>AuthInterceptor&#45;&gt;AppModule</title>
<path fill="none" stroke="black" d="M1091,-85.09C1091,-107.01 1091,-140.8 1091,-140.8 1091,-140.8 561.78,-140.8 561.78,-140.8"/>
<polygon fill="black" stroke="black" points="561.78,-137.3 551.78,-140.8 561.78,-144.3 561.78,-137.3"/>
</g>
<!-- HttpErrorInterceptor -->
<g id="node9" class="node">
<title>HttpErrorInterceptor</title>
<ellipse fill="#fdb462" stroke="black" cx="909" cy="-66.8" rx="90.87" ry="18"/>
<text text-anchor="middle" x="909" y="-62.6" font-family="Times,serif" font-size="14.00">HttpErrorInterceptor</text>
</g>
<!-- HttpErrorInterceptor&#45;&gt;AppModule -->
<g id="edge8" class="edge">
<title>HttpErrorInterceptor&#45;&gt;AppModule</title>
<path fill="none" stroke="black" d="M909,-84.91C909,-104.14 909,-131.8 909,-131.8 909,-131.8 561.95,-131.8 561.95,-131.8"/>
<polygon fill="black" stroke="black" points="561.95,-128.3 551.95,-131.8 561.95,-135.3 561.95,-128.3"/>
</g>
<!-- TizoRestService -->
<g id="node10" class="node">
<title>TizoRestService</title>
<ellipse fill="#fdb462" stroke="black" cx="725" cy="-66.8" rx="74.72" ry="18"/>
<text text-anchor="middle" x="725" y="-62.6" font-family="Times,serif" font-size="14.00">TizoRestService</text>
</g>
<!-- TizoRestService&#45;&gt;AppModule -->
<g id="edge9" class="edge">
<title>TizoRestService&#45;&gt;AppModule</title>
<path fill="none" stroke="black" d="M725,-84.83C725,-101.2 725,-122.8 725,-122.8 725,-122.8 561.71,-122.8 561.71,-122.8"/>
<polygon fill="black" stroke="black" points="561.71,-119.3 551.71,-122.8 561.71,-126.3 561.71,-119.3"/>
</g>
</g>
</svg>
