<?xml version="1.0" encoding="UTF-8" standalone="no"?>
<!DOCTYPE svg PUBLIC "-//W3C//DTD SVG 1.1//EN"
 "http://www.w3.org/Graphics/SVG/1.1/DTD/svg11.dtd">
<!-- Generated by graphviz version 5.0.0 (20220707.1540)
 -->
<!-- Title: dependencies Pages: 1 -->
<svg width="344pt" height="174pt"
 viewBox="0.00 0.00 344.00 173.80" xmlns="http://www.w3.org/2000/svg" xmlns:xlink="http://www.w3.org/1999/xlink">
<g id="graph0" class="graph" transform="scale(1 1) rotate(0) translate(4 169.8)">
<title>dependencies</title>
<polygon fill="white" stroke="transparent" points="-4,4 -4,-169.8 340,-169.8 340,4 -4,4"/>
<text text-anchor="middle" x="168" y="-8.2" font-family="sans-serif" font-size="14.00">dependencies</text>
<g id="clust1" class="cluster">
<title>cluster_AppRoutingModule</title>
<polygon fill="none" stroke="black" stroke-dasharray="1,5" points="8,-32.8 8,-157.8 328,-157.8 328,-32.8 8,-32.8"/>
</g>
<g id="clust3" class="cluster">
<title>cluster_AppRoutingModule_imports</title>
<polygon fill="none" stroke="black" points="16,-40.8 16,-92.8 320,-92.8 320,-40.8 16,-40.8"/>
</g>
<!-- AuthRoutingModule -->
<g id="node1" class="node">
<title>AuthRoutingModule</title>
<polygon fill="#8dd3c7" stroke="black" points="312.17,-84.8 309.17,-88.8 288.17,-88.8 285.17,-84.8 179.83,-84.8 179.83,-48.8 312.17,-48.8 312.17,-84.8"/>
<text text-anchor="middle" x="246" y="-62.6" font-family="Times,serif" font-size="14.00">AuthRoutingModule</text>
</g>
<!-- AppRoutingModule -->
<g id="node3" class="node">
<title>AppRoutingModule</title>
<polygon fill="#8dd3c7" stroke="black" points="233.28,-149.8 230.28,-153.8 209.28,-153.8 206.28,-149.8 104.72,-149.8 104.72,-113.8 233.28,-113.8 233.28,-149.8"/>
<text text-anchor="middle" x="169" y="-127.6" font-family="Times,serif" font-size="14.00">AppRoutingModule</text>
</g>
<!-- AuthRoutingModule&#45;&gt;AppRoutingModule -->
<g id="edge1" class="edge">
<title>AuthRoutingModule&#45;&gt;AppRoutingModule</title>
<path fill="none" stroke="black" d="M206.53,-84.91C206.53,-84.91 206.53,-103.79 206.53,-103.79"/>
<polygon fill="black" stroke="black" points="203.03,-103.79 206.53,-113.79 210.03,-103.79 203.03,-103.79"/>
</g>
<!-- PagesRoutingModule -->
<g id="node2" class="node">
<title>PagesRoutingModule</title>
<polygon fill="#8dd3c7" stroke="black" points="161.83,-84.8 158.83,-88.8 137.83,-88.8 134.83,-84.8 24.17,-84.8 24.17,-48.8 161.83,-48.8 161.83,-84.8"/>
<text text-anchor="middle" x="93" y="-62.6" font-family="Times,serif" font-size="14.00">PagesRoutingModule</text>
</g>
<!-- PagesRoutingModule&#45;&gt;AppRoutingModule -->
<g id="edge2" class="edge">
<title>PagesRoutingModule&#45;&gt;AppRoutingModule</title>
<path fill="none" stroke="black" d="M133.14,-84.91C133.14,-84.91 133.14,-103.79 133.14,-103.79"/>
<polygon fill="black" stroke="black" points="129.64,-103.79 133.14,-113.79 136.64,-103.79 129.64,-103.79"/>
</g>
</g>
</svg>
