<?xml version="1.0" encoding="UTF-8" standalone="no"?>
<!DOCTYPE svg PUBLIC "-//W3C//DTD SVG 1.1//EN"
 "http://www.w3.org/Graphics/SVG/1.1/DTD/svg11.dtd">
<!-- Generated by graphviz version 5.0.0 (20220707.1540)
 -->
<!-- Title: dependencies Pages: 1 -->
<svg width="646pt" height="247pt"
 viewBox="0.00 0.00 646.00 246.80" xmlns="http://www.w3.org/2000/svg" xmlns:xlink="http://www.w3.org/1999/xlink">
<g id="graph0" class="graph" transform="scale(1 1) rotate(0) translate(4 242.8)">
<title>dependencies</title>
<polygon fill="white" stroke="transparent" points="-4,4 -4,-242.8 642,-242.8 642,4 -4,4"/>
<text text-anchor="middle" x="319" y="-8.2" font-family="sans-serif" font-size="14.00">dependencies</text>
<g id="clust1" class="cluster">
<title>cluster_PipesModule</title>
<polygon fill="none" stroke="black" stroke-dasharray="1,5" points="8,-32.8 8,-230.8 630,-230.8 630,-32.8 8,-32.8"/>
</g>
<g id="clust2" class="cluster">
<title>cluster_PipesModule_declarations</title>
<polygon fill="none" stroke="black" points="24,-40.8 24,-92.8 612,-92.8 612,-40.8 24,-40.8"/>
</g>
<g id="clust9" class="cluster">
<title>cluster_PipesModule_exports</title>
<polygon fill="none" stroke="black" points="16,-170.8 16,-222.8 622,-222.8 622,-170.8 16,-170.8"/>
</g>
<!-- AmPmPipe -->
<g id="node1" class="node">
<title>AmPmPipe</title>
<polygon fill="#ffffb3" stroke="black" points="604.07,-84.8 523.93,-84.8 523.93,-48.8 604.07,-48.8 604.07,-84.8"/>
<text text-anchor="middle" x="564" y="-62.6" font-family="Times,serif" font-size="14.00">AmPmPipe</text>
</g>
<!-- PipesModule -->
<g id="node6" class="node">
<title>PipesModule</title>
<polygon fill="#8dd3c7" stroke="black" points="388.89,-149.8 385.89,-153.8 364.89,-153.8 361.89,-149.8 299.11,-149.8 299.11,-113.8 388.89,-113.8 388.89,-149.8"/>
<text text-anchor="middle" x="344" y="-127.6" font-family="Times,serif" font-size="14.00">PipesModule</text>
</g>
<!-- AmPmPipe&#45;&gt;PipesModule -->
<g id="edge1" class="edge">
<title>AmPmPipe&#45;&gt;PipesModule</title>
<path fill="none" stroke="black" d="M579.51,-84.82C579.51,-102.17 579.51,-125.8 579.51,-125.8 579.51,-125.8 399.13,-125.8 399.13,-125.8"/>
<polygon fill="black" stroke="black" points="399.13,-122.3 389.13,-125.8 399.13,-129.3 399.13,-122.3"/>
</g>
<!-- ApproxDatePipe -->
<g id="node2" class="node">
<title>ApproxDatePipe</title>
<polygon fill="#ffffb3" stroke="black" points="506.09,-84.8 395.91,-84.8 395.91,-48.8 506.09,-48.8 506.09,-84.8"/>
<text text-anchor="middle" x="451" y="-62.6" font-family="Times,serif" font-size="14.00">ApproxDatePipe</text>
</g>
<!-- ApproxDatePipe&#45;&gt;PipesModule -->
<g id="edge2" class="edge">
<title>ApproxDatePipe&#45;&gt;PipesModule</title>
<path fill="none" stroke="black" d="M395.88,-66.8C388.55,-66.8 383.5,-66.8 383.5,-66.8 383.5,-66.8 383.5,-103.69 383.5,-103.69"/>
<polygon fill="black" stroke="black" points="380,-103.69 383.5,-113.69 387,-103.69 380,-103.69"/>
</g>
<!-- BoolPipe -->
<g id="node3" class="node">
<title>BoolPipe</title>
<polygon fill="#ffffb3" stroke="black" points="378.12,-84.8 309.88,-84.8 309.88,-48.8 378.12,-48.8 378.12,-84.8"/>
<text text-anchor="middle" x="344" y="-62.6" font-family="Times,serif" font-size="14.00">BoolPipe</text>
</g>
<!-- BoolPipe&#45;&gt;PipesModule -->
<g id="edge3" class="edge">
<title>BoolPipe&#45;&gt;PipesModule</title>
<path fill="none" stroke="black" d="M344,-84.91C344,-84.91 344,-103.79 344,-103.79"/>
<polygon fill="black" stroke="black" points="340.5,-103.79 344,-113.79 347.5,-103.79 340.5,-103.79"/>
</g>
<!-- NumberAlphabetPipe -->
<g id="node4" class="node">
<title>NumberAlphabetPipe</title>
<polygon fill="#ffffb3" stroke="black" points="292.08,-84.8 153.92,-84.8 153.92,-48.8 292.08,-48.8 292.08,-84.8"/>
<text text-anchor="middle" x="223" y="-62.6" font-family="Times,serif" font-size="14.00">NumberAlphabetPipe</text>
</g>
<!-- NumberAlphabetPipe&#45;&gt;PipesModule -->
<g id="edge4" class="edge">
<title>NumberAlphabetPipe&#45;&gt;PipesModule</title>
<path fill="none" stroke="black" d="M292.12,-66.8C299.56,-66.8 304.5,-66.8 304.5,-66.8 304.5,-66.8 304.5,-103.69 304.5,-103.69"/>
<polygon fill="black" stroke="black" points="301,-103.69 304.5,-113.69 308,-103.69 301,-103.69"/>
</g>
<!-- TrackCodePipe -->
<g id="node5" class="node">
<title>TrackCodePipe</title>
<polygon fill="#ffffb3" stroke="black" points="135.58,-84.8 32.42,-84.8 32.42,-48.8 135.58,-48.8 135.58,-84.8"/>
<text text-anchor="middle" x="84" y="-62.6" font-family="Times,serif" font-size="14.00">TrackCodePipe</text>
</g>
<!-- TrackCodePipe&#45;&gt;PipesModule -->
<g id="edge5" class="edge">
<title>TrackCodePipe&#45;&gt;PipesModule</title>
<path fill="none" stroke="black" d="M97.68,-84.82C97.68,-102.17 97.68,-125.8 97.68,-125.8 97.68,-125.8 289.11,-125.8 289.11,-125.8"/>
<polygon fill="black" stroke="black" points="289.11,-129.3 299.11,-125.8 289.11,-122.3 289.11,-129.3"/>
</g>
<!-- AmPmPipe  -->
<g id="node7" class="node">
<title>AmPmPipe </title>
<polygon fill="#fb8072" stroke="black" points="614.07,-214.8 529.93,-214.8 529.93,-178.8 614.07,-178.8 614.07,-214.8"/>
<text text-anchor="middle" x="572" y="-192.6" font-family="Times,serif" font-size="14.00">AmPmPipe </text>
</g>
<!-- PipesModule&#45;&gt;AmPmPipe  -->
<g id="edge6" class="edge">
<title>PipesModule&#45;&gt;AmPmPipe </title>
<path fill="none" stroke="black" stroke-dasharray="5,2" d="M388.95,-137.8C450.84,-137.8 554.74,-137.8 554.74,-137.8 554.74,-137.8 554.74,-168.78 554.74,-168.78"/>
<polygon fill="black" stroke="black" points="551.24,-168.78 554.74,-178.78 558.24,-168.78 551.24,-168.78"/>
</g>
<!-- ApproxDatePipe  -->
<g id="node8" class="node">
<title>ApproxDatePipe </title>
<polygon fill="#fb8072" stroke="black" points="511.59,-214.8 398.41,-214.8 398.41,-178.8 511.59,-178.8 511.59,-214.8"/>
<text text-anchor="middle" x="455" y="-192.6" font-family="Times,serif" font-size="14.00">ApproxDatePipe </text>
</g>
<!-- PipesModule&#45;&gt;ApproxDatePipe  -->
<g id="edge7" class="edge">
<title>PipesModule&#45;&gt;ApproxDatePipe </title>
<path fill="none" stroke="black" stroke-dasharray="5,2" d="M384.38,-149.91C384.38,-169.14 384.38,-196.8 384.38,-196.8 384.38,-196.8 388.33,-196.8 388.33,-196.8"/>
<polygon fill="black" stroke="black" points="388.33,-200.3 398.33,-196.8 388.33,-193.3 388.33,-200.3"/>
</g>
<!-- BoolPipe  -->
<g id="node9" class="node">
<title>BoolPipe </title>
<polygon fill="#fb8072" stroke="black" points="379.62,-214.8 308.38,-214.8 308.38,-178.8 379.62,-178.8 379.62,-214.8"/>
<text text-anchor="middle" x="344" y="-192.6" font-family="Times,serif" font-size="14.00">BoolPipe </text>
</g>
<!-- PipesModule&#45;&gt;BoolPipe  -->
<g id="edge8" class="edge">
<title>PipesModule&#45;&gt;BoolPipe </title>
<path fill="none" stroke="black" stroke-dasharray="5,2" d="M344,-149.91C344,-149.91 344,-168.79 344,-168.79"/>
<polygon fill="black" stroke="black" points="340.5,-168.79 344,-178.79 347.5,-168.79 340.5,-168.79"/>
</g>
<!-- NumberAlphabetPipe  -->
<g id="node10" class="node">
<title>NumberAlphabetPipe </title>
<polygon fill="#fb8072" stroke="black" points="289.58,-214.8 148.42,-214.8 148.42,-178.8 289.58,-178.8 289.58,-214.8"/>
<text text-anchor="middle" x="219" y="-192.6" font-family="Times,serif" font-size="14.00">NumberAlphabetPipe </text>
</g>
<!-- PipesModule&#45;&gt;NumberAlphabetPipe  -->
<g id="edge9" class="edge">
<title>PipesModule&#45;&gt;NumberAlphabetPipe </title>
<path fill="none" stroke="black" stroke-dasharray="5,2" d="M303.62,-149.91C303.62,-169.14 303.62,-196.8 303.62,-196.8 303.62,-196.8 299.65,-196.8 299.65,-196.8"/>
<polygon fill="black" stroke="black" points="299.65,-193.3 289.65,-196.8 299.65,-200.3 299.65,-193.3"/>
</g>
<!-- TrackCodePipe  -->
<g id="node11" class="node">
<title>TrackCodePipe </title>
<polygon fill="#fb8072" stroke="black" points="130.08,-214.8 23.92,-214.8 23.92,-178.8 130.08,-178.8 130.08,-214.8"/>
<text text-anchor="middle" x="77" y="-192.6" font-family="Times,serif" font-size="14.00">TrackCodePipe </text>
</g>
<!-- PipesModule&#45;&gt;TrackCodePipe  -->
<g id="edge10" class="edge">
<title>PipesModule&#45;&gt;TrackCodePipe </title>
<path fill="none" stroke="black" stroke-dasharray="5,2" d="M298.87,-137.8C219.93,-137.8 65.07,-137.8 65.07,-137.8 65.07,-137.8 65.07,-168.78 65.07,-168.78"/>
<polygon fill="black" stroke="black" points="61.57,-168.78 65.07,-178.78 68.57,-168.78 61.57,-168.78"/>
</g>
</g>
</svg>
