<?xml version="1.0" encoding="UTF-8" standalone="no"?>
<!DOCTYPE svg PUBLIC "-//W3C//DTD SVG 1.1//EN"
 "http://www.w3.org/Graphics/SVG/1.1/DTD/svg11.dtd">
<!-- Generated by graphviz version 5.0.0 (20220707.1540)
 -->
<!-- Title: dependencies Pages: 1 -->
<svg width="276pt" height="247pt"
 viewBox="0.00 0.00 276.00 246.80" xmlns="http://www.w3.org/2000/svg" xmlns:xlink="http://www.w3.org/1999/xlink">
<g id="graph0" class="graph" transform="scale(1 1) rotate(0) translate(4 242.8)">
<title>dependencies</title>
<polygon fill="white" stroke="transparent" points="-4,4 -4,-242.8 272,-242.8 272,4 -4,4"/>
<text text-anchor="middle" x="134" y="-8.2" font-family="sans-serif" font-size="14.00">dependencies</text>
<g id="clust1" class="cluster">
<title>cluster_SchemesModule</title>
<polygon fill="none" stroke="black" stroke-dasharray="1,5" points="8,-32.8 8,-230.8 260,-230.8 260,-32.8 8,-32.8"/>
</g>
<g id="clust2" class="cluster">
<title>cluster_SchemesModule_declarations</title>
<polygon fill="none" stroke="black" points="17,-40.8 17,-92.8 251,-92.8 251,-40.8 17,-40.8"/>
</g>
<g id="clust5" class="cluster">
<title>cluster_SchemesModule_exports</title>
<polygon fill="none" stroke="black" points="16,-170.8 16,-222.8 252,-222.8 252,-170.8 16,-170.8"/>
</g>
<!-- TableDynamicTemplateComponent -->
<g id="node1" class="node">
<title>TableDynamicTemplateComponent</title>
<polygon fill="#ffffb3" stroke="black" points="242.88,-84.8 25.12,-84.8 25.12,-48.8 242.88,-48.8 242.88,-84.8"/>
<text text-anchor="middle" x="134" y="-62.6" font-family="Times,serif" font-size="14.00">TableDynamicTemplateComponent</text>
</g>
<!-- SchemesModule -->
<g id="node2" class="node">
<title>SchemesModule</title>
<polygon fill="#8dd3c7" stroke="black" points="188.82,-149.8 185.82,-153.8 164.82,-153.8 161.82,-149.8 79.18,-149.8 79.18,-113.8 188.82,-113.8 188.82,-149.8"/>
<text text-anchor="middle" x="134" y="-127.6" font-family="Times,serif" font-size="14.00">SchemesModule</text>
</g>
<!-- TableDynamicTemplateComponent&#45;&gt;SchemesModule -->
<g id="edge1" class="edge">
<title>TableDynamicTemplateComponent&#45;&gt;SchemesModule</title>
<path fill="none" stroke="black" d="M134,-84.91C134,-84.91 134,-103.79 134,-103.79"/>
<polygon fill="black" stroke="black" points="130.5,-103.79 134,-113.79 137.5,-103.79 130.5,-103.79"/>
</g>
<!-- TableDynamicTemplateComponent  -->
<g id="node3" class="node">
<title>TableDynamicTemplateComponent </title>
<polygon fill="#fb8072" stroke="black" points="244.38,-214.8 23.62,-214.8 23.62,-178.8 244.38,-178.8 244.38,-214.8"/>
<text text-anchor="middle" x="134" y="-192.6" font-family="Times,serif" font-size="14.00">TableDynamicTemplateComponent </text>
</g>
<!-- SchemesModule&#45;&gt;TableDynamicTemplateComponent  -->
<g id="edge2" class="edge">
<title>SchemesModule&#45;&gt;TableDynamicTemplateComponent </title>
<path fill="none" stroke="black" stroke-dasharray="5,2" d="M134,-149.91C134,-149.91 134,-168.79 134,-168.79"/>
<polygon fill="black" stroke="black" points="130.5,-168.79 134,-178.79 137.5,-168.79 130.5,-168.79"/>
</g>
</g>
</svg>
