<?xml version="1.0" encoding="UTF-8" standalone="no"?>
<!DOCTYPE svg PUBLIC "-//W3C//DTD SVG 1.1//EN"
 "http://www.w3.org/Graphics/SVG/1.1/DTD/svg11.dtd">
<!-- Generated by graphviz version 5.0.0 (20220707.1540)
 -->
<!-- Title: dependencies Pages: 1 -->
<svg width="868pt" height="174pt"
 viewBox="0.00 0.00 868.00 173.80" xmlns="http://www.w3.org/2000/svg" xmlns:xlink="http://www.w3.org/1999/xlink">
<g id="graph0" class="graph" transform="scale(1 1) rotate(0) translate(4 169.8)">
<title>dependencies</title>
<polygon fill="white" stroke="transparent" points="-4,4 -4,-169.8 864,-169.8 864,4 -4,4"/>
<text text-anchor="middle" x="430" y="-8.2" font-family="sans-serif" font-size="14.00">dependencies</text>
<g id="clust1" class="cluster">
<title>cluster_AuthModule</title>
<polygon fill="none" stroke="black" stroke-dasharray="1,5" points="8,-32.8 8,-157.8 852,-157.8 852,-32.8 8,-32.8"/>
</g>
<g id="clust9" class="cluster">
<title>cluster_AuthModule_providers</title>
<polygon fill="none" stroke="black" points="710,-40.8 710,-92.8 844,-92.8 844,-40.8 710,-40.8"/>
</g>
<g id="clust2" class="cluster">
<title>cluster_AuthModule_declarations</title>
<polygon fill="none" stroke="black" points="172,-40.8 172,-92.8 702,-92.8 702,-40.8 172,-40.8"/>
</g>
<g id="clust6" class="cluster">
<title>cluster_AuthModule_imports</title>
<polygon fill="none" stroke="black" points="16,-40.8 16,-92.8 164,-92.8 164,-40.8 16,-40.8"/>
</g>
<!-- ForgotPasswordComponent -->
<g id="node1" class="node">
<title>ForgotPasswordComponent</title>
<polygon fill="#ffffb3" stroke="black" points="694.34,-84.8 521.66,-84.8 521.66,-48.8 694.34,-48.8 694.34,-84.8"/>
<text text-anchor="middle" x="608" y="-62.6" font-family="Times,serif" font-size="14.00">ForgotPasswordComponent</text>
</g>
<!-- AuthModule -->
<g id="node4" class="node">
<title>AuthModule</title>
<polygon fill="#8dd3c7" stroke="black" points="453.55,-149.8 450.55,-153.8 429.55,-153.8 426.55,-149.8 366.45,-149.8 366.45,-113.8 453.55,-113.8 453.55,-149.8"/>
<text text-anchor="middle" x="410" y="-127.6" font-family="Times,serif" font-size="14.00">AuthModule</text>
</g>
<!-- ForgotPasswordComponent&#45;&gt;AuthModule -->
<g id="edge1" class="edge">
<title>ForgotPasswordComponent&#45;&gt;AuthModule</title>
<path fill="none" stroke="black" d="M608,-84.82C608,-102.17 608,-125.8 608,-125.8 608,-125.8 463.94,-125.8 463.94,-125.8"/>
<polygon fill="black" stroke="black" points="463.94,-122.3 453.94,-125.8 463.94,-129.3 463.94,-122.3"/>
</g>
<!-- RecoveryPasswordComponent -->
<g id="node2" class="node">
<title>RecoveryPasswordComponent</title>
<polygon fill="#ffffb3" stroke="black" points="504.14,-84.8 315.86,-84.8 315.86,-48.8 504.14,-48.8 504.14,-84.8"/>
<text text-anchor="middle" x="410" y="-62.6" font-family="Times,serif" font-size="14.00">RecoveryPasswordComponent</text>
</g>
<!-- RecoveryPasswordComponent&#45;&gt;AuthModule -->
<g id="edge2" class="edge">
<title>RecoveryPasswordComponent&#45;&gt;AuthModule</title>
<path fill="none" stroke="black" d="M410,-84.91C410,-84.91 410,-103.79 410,-103.79"/>
<polygon fill="black" stroke="black" points="406.5,-103.79 410,-113.79 413.5,-103.79 406.5,-103.79"/>
</g>
<!-- SigninComponent -->
<g id="node3" class="node">
<title>SigninComponent</title>
<polygon fill="#ffffb3" stroke="black" points="297.9,-84.8 180.1,-84.8 180.1,-48.8 297.9,-48.8 297.9,-84.8"/>
<text text-anchor="middle" x="239" y="-62.6" font-family="Times,serif" font-size="14.00">SigninComponent</text>
</g>
<!-- SigninComponent&#45;&gt;AuthModule -->
<g id="edge3" class="edge">
<title>SigninComponent&#45;&gt;AuthModule</title>
<path fill="none" stroke="black" d="M239,-84.82C239,-102.17 239,-125.8 239,-125.8 239,-125.8 356.41,-125.8 356.41,-125.8"/>
<polygon fill="black" stroke="black" points="356.41,-129.3 366.41,-125.8 356.41,-122.3 356.41,-129.3"/>
</g>
<!-- AuthRoutingModule -->
<g id="node5" class="node">
<title>AuthRoutingModule</title>
<polygon fill="#8dd3c7" stroke="black" points="156.17,-84.8 153.17,-88.8 132.17,-88.8 129.17,-84.8 23.83,-84.8 23.83,-48.8 156.17,-48.8 156.17,-84.8"/>
<text text-anchor="middle" x="90" y="-62.6" font-family="Times,serif" font-size="14.00">AuthRoutingModule</text>
</g>
<!-- AuthRoutingModule&#45;&gt;AuthModule -->
<g id="edge4" class="edge">
<title>AuthRoutingModule&#45;&gt;AuthModule</title>
<path fill="none" stroke="black" d="M90,-85.08C90,-106.12 90,-137.8 90,-137.8 90,-137.8 356.18,-137.8 356.18,-137.8"/>
<polygon fill="black" stroke="black" points="356.18,-141.3 366.18,-137.8 356.18,-134.3 356.18,-141.3"/>
</g>
<!-- AuthService -->
<g id="node6" class="node">
<title>AuthService</title>
<ellipse fill="#fdb462" stroke="black" cx="777" cy="-66.8" rx="59.11" ry="18"/>
<text text-anchor="middle" x="777" y="-62.6" font-family="Times,serif" font-size="14.00">AuthService</text>
</g>
<!-- AuthService&#45;&gt;AuthModule -->
<g id="edge5" class="edge">
<title>AuthService&#45;&gt;AuthModule</title>
<path fill="none" stroke="black" d="M777,-85.08C777,-106.12 777,-137.8 777,-137.8 777,-137.8 463.9,-137.8 463.9,-137.8"/>
<polygon fill="black" stroke="black" points="463.9,-134.3 453.9,-137.8 463.9,-141.3 463.9,-134.3"/>
</g>
</g>
</svg>
