<?xml version="1.0" encoding="UTF-8" standalone="no"?>
<!DOCTYPE svg PUBLIC "-//W3C//DTD SVG 1.1//EN"
 "http://www.w3.org/Graphics/SVG/1.1/DTD/svg11.dtd">
<!-- Generated by graphviz version 5.0.0 (20220707.1540)
 -->
<!-- Title: dependencies Pages: 1 -->
<svg width="493pt" height="247pt"
 viewBox="0.00 0.00 493.00 246.80" xmlns="http://www.w3.org/2000/svg" xmlns:xlink="http://www.w3.org/1999/xlink">
<g id="graph0" class="graph" transform="scale(1 1) rotate(0) translate(4 242.8)">
<title>dependencies</title>
<polygon fill="white" stroke="transparent" points="-4,4 -4,-242.8 489,-242.8 489,4 -4,4"/>
<text text-anchor="middle" x="242.5" y="-8.2" font-family="sans-serif" font-size="14.00">dependencies</text>
<g id="clust1" class="cluster">
<title>cluster_CustomerModule</title>
<polygon fill="none" stroke="black" stroke-dasharray="1,5" points="8,-32.8 8,-230.8 477,-230.8 477,-32.8 8,-32.8"/>
</g>
<g id="clust6" class="cluster">
<title>cluster_CustomerModule_exports</title>
<polygon fill="none" stroke="black" points="173,-170.8 173,-222.8 329,-222.8 329,-170.8 173,-170.8"/>
</g>
<g id="clust5" class="cluster">
<title>cluster_CustomerModule_imports</title>
<polygon fill="none" stroke="black" points="335,-40.8 335,-92.8 469,-92.8 469,-40.8 335,-40.8"/>
</g>
<g id="clust2" class="cluster">
<title>cluster_CustomerModule_declarations</title>
<polygon fill="none" stroke="black" points="16,-40.8 16,-92.8 327,-92.8 327,-40.8 16,-40.8"/>
</g>
<!-- CustomerComponent -->
<g id="node1" class="node">
<title>CustomerComponent</title>
<polygon fill="#ffffb3" stroke="black" points="318.77,-84.8 183.23,-84.8 183.23,-48.8 318.77,-48.8 318.77,-84.8"/>
<text text-anchor="middle" x="251" y="-62.6" font-family="Times,serif" font-size="14.00">CustomerComponent</text>
</g>
<!-- CustomerModule -->
<g id="node3" class="node">
<title>CustomerModule</title>
<polygon fill="#8dd3c7" stroke="black" points="307.99,-149.8 304.99,-153.8 283.99,-153.8 280.99,-149.8 194.01,-149.8 194.01,-113.8 307.99,-113.8 307.99,-149.8"/>
<text text-anchor="middle" x="251" y="-127.6" font-family="Times,serif" font-size="14.00">CustomerModule</text>
</g>
<!-- CustomerComponent&#45;&gt;CustomerModule -->
<g id="edge1" class="edge">
<title>CustomerComponent&#45;&gt;CustomerModule</title>
<path fill="none" stroke="black" d="M251,-84.91C251,-84.91 251,-103.79 251,-103.79"/>
<polygon fill="black" stroke="black" points="247.5,-103.79 251,-113.79 254.5,-103.79 247.5,-103.79"/>
</g>
<!-- CustomersComponent -->
<g id="node2" class="node">
<title>CustomersComponent</title>
<polygon fill="#ffffb3" stroke="black" points="165.72,-84.8 24.28,-84.8 24.28,-48.8 165.72,-48.8 165.72,-84.8"/>
<text text-anchor="middle" x="95" y="-62.6" font-family="Times,serif" font-size="14.00">CustomersComponent</text>
</g>
<!-- CustomersComponent&#45;&gt;CustomerModule -->
<g id="edge2" class="edge">
<title>CustomersComponent&#45;&gt;CustomerModule</title>
<path fill="none" stroke="black" d="M95,-84.91C95,-104.14 95,-131.8 95,-131.8 95,-131.8 183.8,-131.8 183.8,-131.8"/>
<polygon fill="black" stroke="black" points="183.8,-135.3 193.8,-131.8 183.8,-128.3 183.8,-135.3"/>
</g>
<!-- CustomerComponent  -->
<g id="node5" class="node">
<title>CustomerComponent </title>
<polygon fill="#fb8072" stroke="black" points="320.77,-214.8 181.23,-214.8 181.23,-178.8 320.77,-178.8 320.77,-214.8"/>
<text text-anchor="middle" x="251" y="-192.6" font-family="Times,serif" font-size="14.00">CustomerComponent </text>
</g>
<!-- CustomerModule&#45;&gt;CustomerComponent  -->
<g id="edge4" class="edge">
<title>CustomerModule&#45;&gt;CustomerComponent </title>
<path fill="none" stroke="black" stroke-dasharray="5,2" d="M251,-149.91C251,-149.91 251,-168.79 251,-168.79"/>
<polygon fill="black" stroke="black" points="247.5,-168.79 251,-178.79 254.5,-168.79 247.5,-168.79"/>
</g>
<!-- TizoTableModule -->
<g id="node4" class="node">
<title>TizoTableModule</title>
<polygon fill="#8dd3c7" stroke="black" points="460.58,-84.8 457.58,-88.8 436.58,-88.8 433.58,-84.8 343.42,-84.8 343.42,-48.8 460.58,-48.8 460.58,-84.8"/>
<text text-anchor="middle" x="402" y="-62.6" font-family="Times,serif" font-size="14.00">TizoTableModule</text>
</g>
<!-- TizoTableModule&#45;&gt;CustomerModule -->
<g id="edge3" class="edge">
<title>TizoTableModule&#45;&gt;CustomerModule</title>
<path fill="none" stroke="black" d="M402,-84.91C402,-104.14 402,-131.8 402,-131.8 402,-131.8 318.09,-131.8 318.09,-131.8"/>
<polygon fill="black" stroke="black" points="318.09,-128.3 308.09,-131.8 318.09,-135.3 318.09,-128.3"/>
</g>
</g>
</svg>
