<?xml version="1.0" encoding="UTF-8" standalone="no"?>
<!DOCTYPE svg PUBLIC "-//W3C//DTD SVG 1.1//EN"
 "http://www.w3.org/Graphics/SVG/1.1/DTD/svg11.dtd">
<!-- Generated by graphviz version 5.0.0 (20220707.1540)
 -->
<!-- Title: dependencies Pages: 1 -->
<svg width="1672pt" height="174pt"
 viewBox="0.00 0.00 1672.00 173.80" xmlns="http://www.w3.org/2000/svg" xmlns:xlink="http://www.w3.org/1999/xlink">
<g id="graph0" class="graph" transform="scale(1 1) rotate(0) translate(4 169.8)">
<title>dependencies</title>
<polygon fill="white" stroke="transparent" points="-4,4 -4,-169.8 1668,-169.8 1668,4 -4,4"/>
<text text-anchor="middle" x="832" y="-8.2" font-family="sans-serif" font-size="14.00">dependencies</text>
<g id="clust1" class="cluster">
<title>cluster_SalesModule</title>
<polygon fill="none" stroke="black" stroke-dasharray="1,5" points="8,-32.8 8,-157.8 1656,-157.8 1656,-32.8 8,-32.8"/>
</g>
<g id="clust11" class="cluster">
<title>cluster_SalesModule_imports</title>
<polygon fill="none" stroke="black" points="1362,-40.8 1362,-92.8 1648,-92.8 1648,-40.8 1362,-40.8"/>
</g>
<g id="clust2" class="cluster">
<title>cluster_SalesModule_declarations</title>
<polygon fill="none" stroke="black" points="16,-40.8 16,-92.8 1354,-92.8 1354,-40.8 16,-40.8"/>
</g>
<!-- CouponsComponent -->
<g id="node1" class="node">
<title>CouponsComponent</title>
<polygon fill="#ffffb3" stroke="black" points="1345.62,-84.8 1214.38,-84.8 1214.38,-48.8 1345.62,-48.8 1345.62,-84.8"/>
<text text-anchor="middle" x="1280" y="-62.6" font-family="Times,serif" font-size="14.00">CouponsComponent</text>
</g>
<!-- SalesModule -->
<g id="node9" class="node">
<title>SalesModule</title>
<polygon fill="#8dd3c7" stroke="black" points="940.6,-149.8 937.6,-153.8 916.6,-153.8 913.6,-149.8 851.4,-149.8 851.4,-113.8 940.6,-113.8 940.6,-149.8"/>
<text text-anchor="middle" x="896" y="-127.6" font-family="Times,serif" font-size="14.00">SalesModule</text>
</g>
<!-- CouponsComponent&#45;&gt;SalesModule -->
<g id="edge1" class="edge">
<title>CouponsComponent&#45;&gt;SalesModule</title>
<path fill="none" stroke="black" d="M1280,-85.07C1280,-103.36 1280,-128.8 1280,-128.8 1280,-128.8 950.8,-128.8 950.8,-128.8"/>
<polygon fill="black" stroke="black" points="950.8,-125.3 940.8,-128.8 950.8,-132.3 950.8,-125.3"/>
</g>
<!-- ProductComponent -->
<g id="node2" class="node">
<title>ProductComponent</title>
<polygon fill="#ffffb3" stroke="black" points="1196.38,-84.8 1071.62,-84.8 1071.62,-48.8 1196.38,-48.8 1196.38,-84.8"/>
<text text-anchor="middle" x="1134" y="-62.6" font-family="Times,serif" font-size="14.00">ProductComponent</text>
</g>
<!-- ProductComponent&#45;&gt;SalesModule -->
<g id="edge2" class="edge">
<title>ProductComponent&#45;&gt;SalesModule</title>
<path fill="none" stroke="black" d="M1134,-84.81C1134,-100.85 1134,-121.8 1134,-121.8 1134,-121.8 950.77,-121.8 950.77,-121.8"/>
<polygon fill="black" stroke="black" points="950.77,-118.3 940.77,-121.8 950.77,-125.3 950.77,-118.3"/>
</g>
<!-- ProductsComponent -->
<g id="node3" class="node">
<title>ProductsComponent</title>
<polygon fill="#ffffb3" stroke="black" points="1053.33,-84.8 922.67,-84.8 922.67,-48.8 1053.33,-48.8 1053.33,-84.8"/>
<text text-anchor="middle" x="988" y="-62.6" font-family="Times,serif" font-size="14.00">ProductsComponent</text>
</g>
<!-- ProductsComponent&#45;&gt;SalesModule -->
<g id="edge3" class="edge">
<title>ProductsComponent&#45;&gt;SalesModule</title>
<path fill="none" stroke="black" d="M931.69,-84.91C931.69,-84.91 931.69,-103.79 931.69,-103.79"/>
<polygon fill="black" stroke="black" points="928.19,-103.79 931.69,-113.79 935.19,-103.79 928.19,-103.79"/>
</g>
<!-- PromotionsContainerComponent -->
<g id="node4" class="node">
<title>PromotionsContainerComponent</title>
<polygon fill="#ffffb3" stroke="black" points="904.6,-84.8 703.4,-84.8 703.4,-48.8 904.6,-48.8 904.6,-84.8"/>
<text text-anchor="middle" x="804" y="-62.6" font-family="Times,serif" font-size="14.00">PromotionsContainerComponent</text>
</g>
<!-- PromotionsContainerComponent&#45;&gt;SalesModule -->
<g id="edge4" class="edge">
<title>PromotionsContainerComponent&#45;&gt;SalesModule</title>
<path fill="none" stroke="black" d="M878,-84.91C878,-84.91 878,-103.79 878,-103.79"/>
<polygon fill="black" stroke="black" points="874.5,-103.79 878,-113.79 881.5,-103.79 874.5,-103.79"/>
</g>
<!-- ShipmentsProductsComponent -->
<g id="node5" class="node">
<title>ShipmentsProductsComponent</title>
<polygon fill="#ffffb3" stroke="black" points="685.95,-84.8 496.05,-84.8 496.05,-48.8 685.95,-48.8 685.95,-84.8"/>
<text text-anchor="middle" x="591" y="-62.6" font-family="Times,serif" font-size="14.00">ShipmentsProductsComponent</text>
</g>
<!-- ShipmentsProductsComponent&#45;&gt;SalesModule -->
<g id="edge5" class="edge">
<title>ShipmentsProductsComponent&#45;&gt;SalesModule</title>
<path fill="none" stroke="black" d="M591,-84.81C591,-100.85 591,-121.8 591,-121.8 591,-121.8 841.32,-121.8 841.32,-121.8"/>
<polygon fill="black" stroke="black" points="841.32,-125.3 851.32,-121.8 841.32,-118.3 841.32,-125.3"/>
</g>
<!-- TizoFilesComponent -->
<g id="node6" class="node">
<title>TizoFilesComponent</title>
<polygon fill="#ffffb3" stroke="black" points="478.21,-84.8 343.79,-84.8 343.79,-48.8 478.21,-48.8 478.21,-84.8"/>
<text text-anchor="middle" x="411" y="-62.6" font-family="Times,serif" font-size="14.00">TizoFilesComponent</text>
</g>
<!-- TizoFilesComponent&#45;&gt;SalesModule -->
<g id="edge6" class="edge">
<title>TizoFilesComponent&#45;&gt;SalesModule</title>
<path fill="none" stroke="black" d="M411,-85.07C411,-103.36 411,-128.8 411,-128.8 411,-128.8 841.24,-128.8 841.24,-128.8"/>
<polygon fill="black" stroke="black" points="841.24,-132.3 851.24,-128.8 841.24,-125.3 841.24,-132.3"/>
</g>
<!-- TizoImageComponent -->
<g id="node7" class="node">
<title>TizoImageComponent</title>
<polygon fill="#ffffb3" stroke="black" points="325.97,-84.8 184.03,-84.8 184.03,-48.8 325.97,-48.8 325.97,-84.8"/>
<text text-anchor="middle" x="255" y="-62.6" font-family="Times,serif" font-size="14.00">TizoImageComponent</text>
</g>
<!-- TizoImageComponent&#45;&gt;SalesModule -->
<g id="edge7" class="edge">
<title>TizoImageComponent&#45;&gt;SalesModule</title>
<path fill="none" stroke="black" d="M255,-84.93C255,-105.37 255,-135.8 255,-135.8 255,-135.8 841.44,-135.8 841.44,-135.8"/>
<polygon fill="black" stroke="black" points="841.44,-139.3 851.44,-135.8 841.44,-132.3 841.44,-139.3"/>
</g>
<!-- TizoVideoComponent -->
<g id="node8" class="node">
<title>TizoVideoComponent</title>
<polygon fill="#ffffb3" stroke="black" points="165.7,-84.8 24.3,-84.8 24.3,-48.8 165.7,-48.8 165.7,-84.8"/>
<text text-anchor="middle" x="95" y="-62.6" font-family="Times,serif" font-size="14.00">TizoVideoComponent</text>
</g>
<!-- TizoVideoComponent&#45;&gt;SalesModule -->
<g id="edge8" class="edge">
<title>TizoVideoComponent&#45;&gt;SalesModule</title>
<path fill="none" stroke="black" d="M95,-84.81C95,-107.29 95,-142.8 95,-142.8 95,-142.8 841.22,-142.8 841.22,-142.8"/>
<polygon fill="black" stroke="black" points="841.22,-146.3 851.22,-142.8 841.22,-139.3 841.22,-146.3"/>
</g>
<!-- SalesRoutingModule -->
<g id="node10" class="node">
<title>SalesRoutingModule</title>
<polygon fill="#8dd3c7" stroke="black" points="1640.22,-84.8 1637.22,-88.8 1616.22,-88.8 1613.22,-84.8 1505.78,-84.8 1505.78,-48.8 1640.22,-48.8 1640.22,-84.8"/>
<text text-anchor="middle" x="1573" y="-62.6" font-family="Times,serif" font-size="14.00">SalesRoutingModule</text>
</g>
<!-- SalesRoutingModule&#45;&gt;SalesModule -->
<g id="edge9" class="edge">
<title>SalesRoutingModule&#45;&gt;SalesModule</title>
<path fill="none" stroke="black" d="M1573,-84.81C1573,-107.29 1573,-142.8 1573,-142.8 1573,-142.8 950.68,-142.8 950.68,-142.8"/>
<polygon fill="black" stroke="black" points="950.68,-139.3 940.68,-142.8 950.68,-146.3 950.68,-139.3"/>
</g>
<!-- TizoTableModule -->
<g id="node11" class="node">
<title>TizoTableModule</title>
<polygon fill="#8dd3c7" stroke="black" points="1487.58,-84.8 1484.58,-88.8 1463.58,-88.8 1460.58,-84.8 1370.42,-84.8 1370.42,-48.8 1487.58,-48.8 1487.58,-84.8"/>
<text text-anchor="middle" x="1429" y="-62.6" font-family="Times,serif" font-size="14.00">TizoTableModule</text>
</g>
<!-- TizoTableModule&#45;&gt;SalesModule -->
<g id="edge10" class="edge">
<title>TizoTableModule&#45;&gt;SalesModule</title>
<path fill="none" stroke="black" d="M1429,-84.93C1429,-105.37 1429,-135.8 1429,-135.8 1429,-135.8 950.98,-135.8 950.98,-135.8"/>
<polygon fill="black" stroke="black" points="950.98,-132.3 940.98,-135.8 950.98,-139.3 950.98,-132.3"/>
</g>
</g>
</svg>
