<?xml version="1.0" encoding="UTF-8" standalone="no"?>
<!DOCTYPE svg PUBLIC "-//W3C//DTD SVG 1.1//EN"
 "http://www.w3.org/Graphics/SVG/1.1/DTD/svg11.dtd">
<!-- Generated by graphviz version 5.0.0 (20220707.1540)
 -->
<!-- Title: dependencies Pages: 1 -->
<svg width="4189pt" height="247pt"
 viewBox="0.00 0.00 4189.00 246.80" xmlns="http://www.w3.org/2000/svg" xmlns:xlink="http://www.w3.org/1999/xlink">
<g id="graph0" class="graph" transform="scale(1 1) rotate(0) translate(4 242.8)">
<title>dependencies</title>
<polygon fill="white" stroke="transparent" points="-4,4 -4,-242.8 4185,-242.8 4185,4 -4,4"/>
<text text-anchor="middle" x="2090.5" y="-8.2" font-family="sans-serif" font-size="14.00">dependencies</text>
<g id="clust1" class="cluster">
<title>cluster_VendorModule</title>
<polygon fill="none" stroke="black" stroke-dasharray="1,5" points="8,-32.8 8,-230.8 4173,-230.8 4173,-32.8 8,-32.8"/>
</g>
<g id="clust2" class="cluster">
<title>cluster_VendorModule_declarations</title>
<polygon fill="none" stroke="black" points="158,-40.8 158,-92.8 4165,-92.8 4165,-40.8 158,-40.8"/>
</g>
<g id="clust28" class="cluster">
<title>cluster_VendorModule_exports</title>
<polygon fill="none" stroke="black" points="1855,-170.8 1855,-222.8 2140,-222.8 2140,-170.8 1855,-170.8"/>
</g>
<g id="clust27" class="cluster">
<title>cluster_VendorModule_imports</title>
<polygon fill="none" stroke="black" points="16,-40.8 16,-92.8 150,-92.8 150,-40.8 16,-40.8"/>
</g>
<!-- AccessComponent -->
<g id="node1" class="node">
<title>AccessComponent</title>
<polygon fill="#ffffb3" stroke="black" points="4157.48,-84.8 4036.52,-84.8 4036.52,-48.8 4157.48,-48.8 4157.48,-84.8"/>
<text text-anchor="middle" x="4097" y="-62.6" font-family="Times,serif" font-size="14.00">AccessComponent</text>
</g>
<!-- VendorModule -->
<g id="node25" class="node">
<title>VendorModule</title>
<polygon fill="#8dd3c7" stroke="black" points="2048.54,-149.8 2045.54,-153.8 2024.54,-153.8 2021.54,-149.8 1947.46,-149.8 1947.46,-113.8 2048.54,-113.8 2048.54,-149.8"/>
<text text-anchor="middle" x="1998" y="-127.6" font-family="Times,serif" font-size="14.00">VendorModule</text>
</g>
<!-- AccessComponent&#45;&gt;VendorModule -->
<g id="edge1" class="edge">
<title>AccessComponent&#45;&gt;VendorModule</title>
<path fill="none" stroke="black" d="M4097,-85.18C4097,-109.08 4097,-147.8 4097,-147.8 4097,-147.8 2058.59,-147.8 2058.59,-147.8"/>
<polygon fill="black" stroke="black" points="2058.59,-144.3 2048.59,-147.8 2058.59,-151.3 2058.59,-144.3"/>
</g>
<!-- AccountsPayableComponent -->
<g id="node2" class="node">
<title>AccountsPayableComponent</title>
<polygon fill="#ffffb3" stroke="black" points="4018.03,-84.8 3839.97,-84.8 3839.97,-48.8 4018.03,-48.8 4018.03,-84.8"/>
<text text-anchor="middle" x="3929" y="-62.6" font-family="Times,serif" font-size="14.00">AccountsPayableComponent</text>
</g>
<!-- AccountsPayableComponent&#45;&gt;VendorModule -->
<g id="edge2" class="edge">
<title>AccountsPayableComponent&#45;&gt;VendorModule</title>
<path fill="none" stroke="black" d="M3929,-84.89C3929,-107.93 3929,-144.8 3929,-144.8 3929,-144.8 2058.66,-144.8 2058.66,-144.8"/>
<polygon fill="black" stroke="black" points="2058.66,-141.3 2048.66,-144.8 2058.66,-148.3 2058.66,-141.3"/>
</g>
<!-- AccountsReceivableComponent -->
<g id="node3" class="node">
<title>AccountsReceivableComponent</title>
<polygon fill="#ffffb3" stroke="black" points="3822.39,-84.8 3625.61,-84.8 3625.61,-48.8 3822.39,-48.8 3822.39,-84.8"/>
<text text-anchor="middle" x="3724" y="-62.6" font-family="Times,serif" font-size="14.00">AccountsReceivableComponent</text>
</g>
<!-- AccountsReceivableComponent&#45;&gt;VendorModule -->
<g id="edge3" class="edge">
<title>AccountsReceivableComponent&#45;&gt;VendorModule</title>
<path fill="none" stroke="black" d="M3724,-84.96C3724,-107.15 3724,-141.8 3724,-141.8 3724,-141.8 2058.72,-141.8 2058.72,-141.8"/>
<polygon fill="black" stroke="black" points="2058.72,-138.3 2048.72,-141.8 2058.72,-145.3 2058.72,-138.3"/>
</g>
<!-- ApiIntegrationsComponent -->
<g id="node4" class="node">
<title>ApiIntegrationsComponent</title>
<polygon fill="#ffffb3" stroke="black" points="3607.7,-84.8 3438.3,-84.8 3438.3,-48.8 3607.7,-48.8 3607.7,-84.8"/>
<text text-anchor="middle" x="3523" y="-62.6" font-family="Times,serif" font-size="14.00">ApiIntegrationsComponent</text>
</g>
<!-- ApiIntegrationsComponent&#45;&gt;VendorModule -->
<g id="edge4" class="edge">
<title>ApiIntegrationsComponent&#45;&gt;VendorModule</title>
<path fill="none" stroke="black" d="M3523,-84.97C3523,-106.3 3523,-138.8 3523,-138.8 3523,-138.8 2058.74,-138.8 2058.74,-138.8"/>
<polygon fill="black" stroke="black" points="2058.74,-135.3 2048.74,-138.8 2058.74,-142.3 2058.74,-135.3"/>
</g>
<!-- ApiTizoComponent -->
<g id="node5" class="node">
<title>ApiTizoComponent</title>
<polygon fill="#ffffb3" stroke="black" points="3419.99,-84.8 3292.01,-84.8 3292.01,-48.8 3419.99,-48.8 3419.99,-84.8"/>
<text text-anchor="middle" x="3356" y="-62.6" font-family="Times,serif" font-size="14.00">ApiTizoComponent</text>
</g>
<!-- ApiTizoComponent&#45;&gt;VendorModule -->
<g id="edge5" class="edge">
<title>ApiTizoComponent&#45;&gt;VendorModule</title>
<path fill="none" stroke="black" d="M3356,-84.83C3356,-105.57 3356,-136.8 3356,-136.8 3356,-136.8 2058.76,-136.8 2058.76,-136.8"/>
<polygon fill="black" stroke="black" points="2058.76,-133.3 2048.76,-136.8 2058.76,-140.3 2058.76,-133.3"/>
</g>
<!-- BranchComponent -->
<g id="node6" class="node">
<title>BranchComponent</title>
<polygon fill="#ffffb3" stroke="black" points="3273.76,-84.8 3152.24,-84.8 3152.24,-48.8 3273.76,-48.8 3273.76,-84.8"/>
<text text-anchor="middle" x="3213" y="-62.6" font-family="Times,serif" font-size="14.00">BranchComponent</text>
</g>
<!-- BranchComponent&#45;&gt;VendorModule -->
<g id="edge6" class="edge">
<title>BranchComponent&#45;&gt;VendorModule</title>
<path fill="none" stroke="black" d="M3213,-85.11C3213,-104.95 3213,-133.8 3213,-133.8 3213,-133.8 2058.66,-133.8 2058.66,-133.8"/>
<polygon fill="black" stroke="black" points="2058.66,-130.3 2048.66,-133.8 2058.66,-137.3 2058.66,-130.3"/>
</g>
<!-- BranchesComponent -->
<g id="node7" class="node">
<title>BranchesComponent</title>
<polygon fill="#ffffb3" stroke="black" points="3133.92,-84.8 3000.08,-84.8 3000.08,-48.8 3133.92,-48.8 3133.92,-84.8"/>
<text text-anchor="middle" x="3067" y="-62.6" font-family="Times,serif" font-size="14.00">BranchesComponent</text>
</g>
<!-- BranchesComponent&#45;&gt;VendorModule -->
<g id="edge7" class="edge">
<title>BranchesComponent&#45;&gt;VendorModule</title>
<path fill="none" stroke="black" d="M3067,-84.97C3067,-103.89 3067,-130.8 3067,-130.8 3067,-130.8 2058.84,-130.8 2058.84,-130.8"/>
<polygon fill="black" stroke="black" points="2058.84,-127.3 2048.84,-130.8 2058.84,-134.3 2058.84,-127.3"/>
</g>
<!-- CancellationOfAccountsComponent -->
<g id="node8" class="node">
<title>CancellationOfAccountsComponent</title>
<polygon fill="#ffffb3" stroke="black" points="2981.73,-84.8 2762.27,-84.8 2762.27,-48.8 2981.73,-48.8 2981.73,-84.8"/>
<text text-anchor="middle" x="2872" y="-62.6" font-family="Times,serif" font-size="14.00">CancellationOfAccountsComponent</text>
</g>
<!-- CancellationOfAccountsComponent&#45;&gt;VendorModule -->
<g id="edge8" class="edge">
<title>CancellationOfAccountsComponent&#45;&gt;VendorModule</title>
<path fill="none" stroke="black" d="M2872,-85.1C2872,-103.07 2872,-127.8 2872,-127.8 2872,-127.8 2058.77,-127.8 2058.77,-127.8"/>
<polygon fill="black" stroke="black" points="2058.77,-124.3 2048.77,-127.8 2058.77,-131.3 2058.77,-124.3"/>
</g>
<!-- FinanceComponent -->
<g id="node9" class="node">
<title>FinanceComponent</title>
<polygon fill="#ffffb3" stroke="black" points="2743.65,-84.8 2618.35,-84.8 2618.35,-48.8 2743.65,-48.8 2743.65,-84.8"/>
<text text-anchor="middle" x="2681" y="-62.6" font-family="Times,serif" font-size="14.00">FinanceComponent</text>
</g>
<!-- FinanceComponent&#45;&gt;VendorModule -->
<g id="edge9" class="edge">
<title>FinanceComponent&#45;&gt;VendorModule</title>
<path fill="none" stroke="black" d="M2681,-84.82C2681,-102.17 2681,-125.8 2681,-125.8 2681,-125.8 2058.78,-125.8 2058.78,-125.8"/>
<polygon fill="black" stroke="black" points="2058.78,-122.3 2048.78,-125.8 2058.78,-129.3 2058.78,-122.3"/>
</g>
<!-- InvoicesComponent -->
<g id="node10" class="node">
<title>InvoicesComponent</title>
<polygon fill="#ffffb3" stroke="black" points="2600.26,-84.8 2471.74,-84.8 2471.74,-48.8 2600.26,-48.8 2600.26,-84.8"/>
<text text-anchor="middle" x="2536" y="-62.6" font-family="Times,serif" font-size="14.00">InvoicesComponent</text>
</g>
<!-- InvoicesComponent&#45;&gt;VendorModule -->
<g id="edge10" class="edge">
<title>InvoicesComponent&#45;&gt;VendorModule</title>
<path fill="none" stroke="black" d="M2536,-84.83C2536,-101.2 2536,-122.8 2536,-122.8 2536,-122.8 2058.61,-122.8 2058.61,-122.8"/>
<polygon fill="black" stroke="black" points="2058.61,-119.3 2048.61,-122.8 2058.61,-126.3 2058.61,-119.3"/>
</g>
<!-- InvoicesHistoricalComponent -->
<g id="node11" class="node">
<title>InvoicesHistoricalComponent</title>
<polygon fill="#ffffb3" stroke="black" points="2453.97,-84.8 2270.03,-84.8 2270.03,-48.8 2453.97,-48.8 2453.97,-84.8"/>
<text text-anchor="middle" x="2362" y="-62.6" font-family="Times,serif" font-size="14.00">InvoicesHistoricalComponent</text>
</g>
<!-- InvoicesHistoricalComponent&#45;&gt;VendorModule -->
<g id="edge11" class="edge">
<title>InvoicesHistoricalComponent&#45;&gt;VendorModule</title>
<path fill="none" stroke="black" d="M2362,-85.04C2362,-100.37 2362,-119.8 2362,-119.8 2362,-119.8 2058.61,-119.8 2058.61,-119.8"/>
<polygon fill="black" stroke="black" points="2058.61,-116.3 2048.61,-119.8 2058.61,-123.3 2058.61,-116.3"/>
</g>
<!-- ManagementComponent -->
<g id="node12" class="node">
<title>ManagementComponent</title>
<polygon fill="#ffffb3" stroke="black" points="2252.41,-84.8 2097.59,-84.8 2097.59,-48.8 2252.41,-48.8 2252.41,-84.8"/>
<text text-anchor="middle" x="2175" y="-62.6" font-family="Times,serif" font-size="14.00">ManagementComponent</text>
</g>
<!-- ManagementComponent&#45;&gt;VendorModule -->
<g id="edge12" class="edge">
<title>ManagementComponent&#45;&gt;VendorModule</title>
<path fill="none" stroke="black" d="M2115.02,-84.85C2115.02,-99.17 2115.02,-116.8 2115.02,-116.8 2115.02,-116.8 2058.64,-116.8 2058.64,-116.8"/>
<polygon fill="black" stroke="black" points="2058.64,-113.3 2048.64,-116.8 2058.64,-120.3 2058.64,-113.3"/>
</g>
<!-- ProductReturnComponent -->
<g id="node13" class="node">
<title>ProductReturnComponent</title>
<polygon fill="#ffffb3" stroke="black" points="2079.49,-84.8 1916.51,-84.8 1916.51,-48.8 2079.49,-48.8 2079.49,-84.8"/>
<text text-anchor="middle" x="1998" y="-62.6" font-family="Times,serif" font-size="14.00">ProductReturnComponent</text>
</g>
<!-- ProductReturnComponent&#45;&gt;VendorModule -->
<g id="edge13" class="edge">
<title>ProductReturnComponent&#45;&gt;VendorModule</title>
<path fill="none" stroke="black" d="M1998,-84.91C1998,-84.91 1998,-103.79 1998,-103.79"/>
<polygon fill="black" stroke="black" points="1994.5,-103.79 1998,-113.79 2001.5,-103.79 1994.5,-103.79"/>
</g>
<!-- ProfileManagerComponent -->
<g id="node14" class="node">
<title>ProfileManagerComponent</title>
<polygon fill="#ffffb3" stroke="black" points="1898.69,-84.8 1729.31,-84.8 1729.31,-48.8 1898.69,-48.8 1898.69,-84.8"/>
<text text-anchor="middle" x="1814" y="-62.6" font-family="Times,serif" font-size="14.00">ProfileManagerComponent</text>
</g>
<!-- ProfileManagerComponent&#45;&gt;VendorModule -->
<g id="edge14" class="edge">
<title>ProfileManagerComponent&#45;&gt;VendorModule</title>
<path fill="none" stroke="black" d="M1880.59,-84.85C1880.59,-99.17 1880.59,-116.8 1880.59,-116.8 1880.59,-116.8 1937.19,-116.8 1937.19,-116.8"/>
<polygon fill="black" stroke="black" points="1937.19,-120.3 1947.19,-116.8 1937.19,-113.3 1937.19,-120.3"/>
</g>
<!-- ProfilesManagerComponent -->
<g id="node15" class="node">
<title>ProfilesManagerComponent</title>
<polygon fill="#ffffb3" stroke="black" points="1711.14,-84.8 1536.86,-84.8 1536.86,-48.8 1711.14,-48.8 1711.14,-84.8"/>
<text text-anchor="middle" x="1624" y="-62.6" font-family="Times,serif" font-size="14.00">ProfilesManagerComponent</text>
</g>
<!-- ProfilesManagerComponent&#45;&gt;VendorModule -->
<g id="edge15" class="edge">
<title>ProfilesManagerComponent&#45;&gt;VendorModule</title>
<path fill="none" stroke="black" d="M1624,-85.04C1624,-100.37 1624,-119.8 1624,-119.8 1624,-119.8 1937.17,-119.8 1937.17,-119.8"/>
<polygon fill="black" stroke="black" points="1937.17,-123.3 1947.17,-119.8 1937.17,-116.3 1937.17,-123.3"/>
</g>
<!-- PromotionsComponent -->
<g id="node16" class="node">
<title>PromotionsComponent</title>
<polygon fill="#ffffb3" stroke="black" points="1518.9,-84.8 1373.1,-84.8 1373.1,-48.8 1518.9,-48.8 1518.9,-84.8"/>
<text text-anchor="middle" x="1446" y="-62.6" font-family="Times,serif" font-size="14.00">PromotionsComponent</text>
</g>
<!-- PromotionsComponent&#45;&gt;VendorModule -->
<g id="edge16" class="edge">
<title>PromotionsComponent&#45;&gt;VendorModule</title>
<path fill="none" stroke="black" d="M1446,-84.83C1446,-101.2 1446,-122.8 1446,-122.8 1446,-122.8 1937.06,-122.8 1937.06,-122.8"/>
<polygon fill="black" stroke="black" points="1937.06,-126.3 1947.06,-122.8 1937.06,-119.3 1937.06,-126.3"/>
</g>
<!-- RecordComponent -->
<g id="node17" class="node">
<title>RecordComponent</title>
<polygon fill="#ffffb3" stroke="black" points="1354.76,-84.8 1233.24,-84.8 1233.24,-48.8 1354.76,-48.8 1354.76,-84.8"/>
<text text-anchor="middle" x="1294" y="-62.6" font-family="Times,serif" font-size="14.00">RecordComponent</text>
</g>
<!-- RecordComponent&#45;&gt;VendorModule -->
<g id="edge17" class="edge">
<title>RecordComponent&#45;&gt;VendorModule</title>
<path fill="none" stroke="black" d="M1294,-84.82C1294,-102.17 1294,-125.8 1294,-125.8 1294,-125.8 1937.37,-125.8 1937.37,-125.8"/>
<polygon fill="black" stroke="black" points="1937.37,-129.3 1947.37,-125.8 1937.37,-122.3 1937.37,-129.3"/>
</g>
<!-- StatementPayableComponent -->
<g id="node18" class="node">
<title>StatementPayableComponent</title>
<polygon fill="#ffffb3" stroke="black" points="1214.64,-84.8 1033.36,-84.8 1033.36,-48.8 1214.64,-48.8 1214.64,-84.8"/>
<text text-anchor="middle" x="1124" y="-62.6" font-family="Times,serif" font-size="14.00">StatementPayableComponent</text>
</g>
<!-- StatementPayableComponent&#45;&gt;VendorModule -->
<g id="edge18" class="edge">
<title>StatementPayableComponent&#45;&gt;VendorModule</title>
<path fill="none" stroke="black" d="M1124,-85.1C1124,-103.07 1124,-127.8 1124,-127.8 1124,-127.8 1937.23,-127.8 1937.23,-127.8"/>
<polygon fill="black" stroke="black" points="1937.23,-131.3 1947.23,-127.8 1937.23,-124.3 1937.23,-131.3"/>
</g>
<!-- StatementsPayableComponent -->
<g id="node19" class="node">
<title>StatementsPayableComponent</title>
<polygon fill="#ffffb3" stroke="black" points="1015.58,-84.8 828.42,-84.8 828.42,-48.8 1015.58,-48.8 1015.58,-84.8"/>
<text text-anchor="middle" x="922" y="-62.6" font-family="Times,serif" font-size="14.00">StatementsPayableComponent</text>
</g>
<!-- StatementsPayableComponent&#45;&gt;VendorModule -->
<g id="edge19" class="edge">
<title>StatementsPayableComponent&#45;&gt;VendorModule</title>
<path fill="none" stroke="black" d="M922,-84.97C922,-103.89 922,-130.8 922,-130.8 922,-130.8 1937.19,-130.8 1937.19,-130.8"/>
<polygon fill="black" stroke="black" points="1937.19,-134.3 1947.19,-130.8 1937.19,-127.3 1937.19,-134.3"/>
</g>
<!-- StoreComponent -->
<g id="node20" class="node">
<title>StoreComponent</title>
<polygon fill="#ffffb3" stroke="black" points="810.38,-84.8 699.62,-84.8 699.62,-48.8 810.38,-48.8 810.38,-84.8"/>
<text text-anchor="middle" x="755" y="-62.6" font-family="Times,serif" font-size="14.00">StoreComponent</text>
</g>
<!-- StoreComponent&#45;&gt;VendorModule -->
<g id="edge20" class="edge">
<title>StoreComponent&#45;&gt;VendorModule</title>
<path fill="none" stroke="black" d="M755,-85.11C755,-104.95 755,-133.8 755,-133.8 755,-133.8 1937.35,-133.8 1937.35,-133.8"/>
<polygon fill="black" stroke="black" points="1937.35,-137.3 1947.35,-133.8 1937.35,-130.3 1937.35,-137.3"/>
</g>
<!-- UserComponent -->
<g id="node21" class="node">
<title>UserComponent</title>
<polygon fill="#ffffb3" stroke="black" points="681.77,-84.8 574.23,-84.8 574.23,-48.8 681.77,-48.8 681.77,-84.8"/>
<text text-anchor="middle" x="628" y="-62.6" font-family="Times,serif" font-size="14.00">UserComponent</text>
</g>
<!-- UserComponent&#45;&gt;VendorModule -->
<g id="edge21" class="edge">
<title>UserComponent&#45;&gt;VendorModule</title>
<path fill="none" stroke="black" d="M628,-84.83C628,-105.57 628,-136.8 628,-136.8 628,-136.8 1937.21,-136.8 1937.21,-136.8"/>
<polygon fill="black" stroke="black" points="1937.21,-140.3 1947.21,-136.8 1937.21,-133.3 1937.21,-140.3"/>
</g>
<!-- UsersComponent -->
<g id="node22" class="node">
<title>UsersComponent</title>
<polygon fill="#ffffb3" stroke="black" points="556.71,-84.8 443.29,-84.8 443.29,-48.8 556.71,-48.8 556.71,-84.8"/>
<text text-anchor="middle" x="500" y="-62.6" font-family="Times,serif" font-size="14.00">UsersComponent</text>
</g>
<!-- UsersComponent&#45;&gt;VendorModule -->
<g id="edge22" class="edge">
<title>UsersComponent&#45;&gt;VendorModule</title>
<path fill="none" stroke="black" d="M500,-84.97C500,-106.3 500,-138.8 500,-138.8 500,-138.8 1937.3,-138.8 1937.3,-138.8"/>
<polygon fill="black" stroke="black" points="1937.3,-142.3 1947.3,-138.8 1937.3,-135.3 1937.3,-142.3"/>
</g>
<!-- VendorComponent -->
<g id="node23" class="node">
<title>VendorComponent</title>
<polygon fill="#ffffb3" stroke="black" points="425.82,-84.8 302.18,-84.8 302.18,-48.8 425.82,-48.8 425.82,-84.8"/>
<text text-anchor="middle" x="364" y="-62.6" font-family="Times,serif" font-size="14.00">VendorComponent</text>
</g>
<!-- VendorComponent&#45;&gt;VendorModule -->
<g id="edge23" class="edge">
<title>VendorComponent&#45;&gt;VendorModule</title>
<path fill="none" stroke="black" d="M364,-84.96C364,-107.15 364,-141.8 364,-141.8 364,-141.8 1937.31,-141.8 1937.31,-141.8"/>
<polygon fill="black" stroke="black" points="1937.31,-145.3 1947.31,-141.8 1937.31,-138.3 1937.31,-145.3"/>
</g>
<!-- WalletComponent -->
<g id="node24" class="node">
<title>WalletComponent</title>
<polygon fill="#ffffb3" stroke="black" points="284.14,-84.8 165.86,-84.8 165.86,-48.8 284.14,-48.8 284.14,-84.8"/>
<text text-anchor="middle" x="225" y="-62.6" font-family="Times,serif" font-size="14.00">WalletComponent</text>
</g>
<!-- WalletComponent&#45;&gt;VendorModule -->
<g id="edge24" class="edge">
<title>WalletComponent&#45;&gt;VendorModule</title>
<path fill="none" stroke="black" d="M225,-84.89C225,-107.93 225,-144.8 225,-144.8 225,-144.8 1937.32,-144.8 1937.32,-144.8"/>
<polygon fill="black" stroke="black" points="1937.32,-148.3 1947.32,-144.8 1937.32,-141.3 1937.32,-148.3"/>
</g>
<!-- AccessComponent  -->
<g id="node27" class="node">
<title>AccessComponent </title>
<polygon fill="#fb8072" stroke="black" points="2132.48,-214.8 2007.52,-214.8 2007.52,-178.8 2132.48,-178.8 2132.48,-214.8"/>
<text text-anchor="middle" x="2070" y="-192.6" font-family="Times,serif" font-size="14.00">AccessComponent </text>
</g>
<!-- VendorModule&#45;&gt;AccessComponent  -->
<g id="edge26" class="edge">
<title>VendorModule&#45;&gt;AccessComponent </title>
<path fill="none" stroke="black" stroke-dasharray="5,2" d="M2028.26,-149.91C2028.26,-149.91 2028.26,-168.79 2028.26,-168.79"/>
<polygon fill="black" stroke="black" points="2024.76,-168.79 2028.26,-178.79 2031.76,-168.79 2024.76,-168.79"/>
</g>
<!-- VendorComponent  -->
<g id="node28" class="node">
<title>VendorComponent </title>
<polygon fill="#fb8072" stroke="black" points="1989.32,-214.8 1862.68,-214.8 1862.68,-178.8 1989.32,-178.8 1989.32,-214.8"/>
<text text-anchor="middle" x="1926" y="-192.6" font-family="Times,serif" font-size="14.00">VendorComponent </text>
</g>
<!-- VendorModule&#45;&gt;VendorComponent  -->
<g id="edge27" class="edge">
<title>VendorModule&#45;&gt;VendorComponent </title>
<path fill="none" stroke="black" stroke-dasharray="5,2" d="M1968.32,-149.91C1968.32,-149.91 1968.32,-168.79 1968.32,-168.79"/>
<polygon fill="black" stroke="black" points="1964.82,-168.79 1968.32,-178.79 1971.82,-168.79 1964.82,-168.79"/>
</g>
<!-- TizoTableModule -->
<g id="node26" class="node">
<title>TizoTableModule</title>
<polygon fill="#8dd3c7" stroke="black" points="141.58,-84.8 138.58,-88.8 117.58,-88.8 114.58,-84.8 24.42,-84.8 24.42,-48.8 141.58,-48.8 141.58,-84.8"/>
<text text-anchor="middle" x="83" y="-62.6" font-family="Times,serif" font-size="14.00">TizoTableModule</text>
</g>
<!-- TizoTableModule&#45;&gt;VendorModule -->
<g id="edge25" class="edge">
<title>TizoTableModule&#45;&gt;VendorModule</title>
<path fill="none" stroke="black" d="M83,-85.18C83,-109.08 83,-147.8 83,-147.8 83,-147.8 1937.27,-147.8 1937.27,-147.8"/>
<polygon fill="black" stroke="black" points="1937.27,-151.3 1947.27,-147.8 1937.27,-144.3 1937.27,-151.3"/>
</g>
</g>
</svg>
